<?xml version="1.0" standalone="no"?>
<!DOCTYPE svg PUBLIC "-//W3C//DTD SVG 1.1//EN" "http://www.w3.org/Graphics/SVG/1.1/DTD/svg11.dtd" >
<svg xmlns="http://www.w3.org/2000/svg" xmlns:xlink="http://www.w3.org/1999/xlink" version="1.1">
<metadata>
Created by FontForge 20190801 at Tue Jul  5 17:08:50 2016
 By Jimmy Wärting
Copyright \(c\) 2016 by Fontfabric LLC. All rights reserved.
</metadata>
<defs>
<font id="Akrobat-Regular" horiz-adv-x="0" >
  <font-face 
    font-family="Akrobat"
    font-weight="500"
    font-stretch="normal"
    units-per-em="1000"
    panose-1="0 0 6 0 0 0 0 0 0 0"
    ascent="800"
    descent="-200"
    x-height="525"
    cap-height="700"
    bbox="-381 -249 802 946"
    underline-thickness="50"
    underline-position="-100"
    stemh="55"
    stemv="58"
    unicode-range="U+0020-25CA"
  />
<missing-glyph horiz-adv-x="500" 
d="M410 800v-1000h-317v1000h317zM333 733h-165v-33h65v-37h-66v-33h166v33h-66v37h66v33zM267 604h-100v-104h166v34h-66v70zM233 570v-36h-33v36h33zM333 473h-166v-33h66v-37h-66v-33h100v70h66v33zM333 413h-33v-66h-133v-34h166v100zM333 291h-100v-56h34v23h33v-47
h-100v80h-33v-113h166v113zM333 118h-166v-113h166v113zM300 85v-47h-100v47h100zM333 -18h-166v-33h70l-70 -47v-33h166v33h-102l70 47h32v33z" />
    <glyph glyph-name=".notdef" horiz-adv-x="500" 
d="M410 800v-1000h-317v1000h317zM333 733h-165v-33h65v-37h-66v-33h166v33h-66v37h66v33zM267 604h-100v-104h166v34h-66v70zM233 570v-36h-33v36h33zM333 473h-166v-33h66v-37h-66v-33h100v70h66v33zM333 413h-33v-66h-133v-34h166v100zM333 291h-100v-56h34v23h33v-47
h-100v80h-33v-113h166v113zM333 118h-166v-113h166v113zM300 85v-47h-100v47h100zM333 -18h-166v-33h70l-70 -47v-33h166v33h-102l70 47h32v33z" />
    <glyph glyph-name="A" unicode="A" horiz-adv-x="458" 
d="M381 0l-41 164h-222l-41 -164h-66l184 700h68l184 -700h-66zM132 220h194l-72 290c-11 43 -21 93 -24 110h-2c-3 -17 -13 -67 -24 -110z" />
    <glyph glyph-name="Aacute" unicode="&#xc1;" horiz-adv-x="458" 
d="M343 882l-105 -113h-59l92 113h72zM381 0l-41 164h-222l-41 -164h-66l184 700h68l184 -700h-66zM132 220h194l-72 290c-11 43 -21 93 -24 110h-2c-3 -17 -13 -67 -24 -110z" />
    <glyph glyph-name="Abreve" unicode="&#x102;" horiz-adv-x="458" 
d="M227 766c-69 0 -110 42 -113 116h52c3 -44 21 -66 61 -66s58 22 61 66h52c-3 -74 -44 -116 -113 -116zM381 0l-41 164h-222l-41 -164h-66l184 700h68l184 -700h-66zM132 220h194l-72 290c-11 43 -21 93 -24 110h-2c-3 -17 -13 -67 -24 -110z" />
    <glyph glyph-name="Acircumflex" unicode="&#xc2;" horiz-adv-x="458" 
d="M227 839l-57 -70h-56l81 113h64l81 -113h-56zM381 0l-41 164h-222l-41 -164h-66l184 700h68l184 -700h-66zM132 220h194l-72 290c-11 43 -21 93 -24 110h-2c-3 -17 -13 -67 -24 -110z" />
    <glyph glyph-name="Adieresis" unicode="&#xc4;" horiz-adv-x="458" 
d="M162 788c-24 0 -40 15 -40 39s16 39 40 39c23 0 39 -15 39 -39s-16 -39 -39 -39zM292 788c-24 0 -41 15 -41 39s17 39 41 39s40 -15 40 -39s-16 -39 -40 -39zM381 0l-41 164h-222l-41 -164h-66l184 700h68l184 -700h-66zM132 220h194l-72 290c-11 43 -21 93 -24 110h-2
c-3 -17 -13 -67 -24 -110z" />
    <glyph glyph-name="Agrave" unicode="&#xc0;" horiz-adv-x="458" 
d="M269 769h-59l-105 113h72zM381 0l-41 164h-222l-41 -164h-66l184 700h68l184 -700h-66zM132 220h194l-72 290c-11 43 -21 93 -24 110h-2c-3 -17 -13 -67 -24 -110z" />
    <glyph glyph-name="Amacron" unicode="&#x100;" horiz-adv-x="458" 
d="M319 849v-52h-184v52h184zM381 0l-41 164h-222l-41 -164h-66l184 700h68l184 -700h-66zM132 220h194l-72 290c-11 43 -21 93 -24 110h-2c-3 -17 -13 -67 -24 -110z" />
    <glyph glyph-name="Aogonek" unicode="&#x104;" horiz-adv-x="459" 
d="M416 -137c13 0 23 0 32 3v-52c-11 -4 -27 -6 -41 -6c-62 0 -86 41 -86 81c0 42 23 79 60 111l-41 164h-222l-41 -164h-66l184 700h68l184 -700h-11c-32 -28 -58 -70 -58 -101c0 -27 20 -36 38 -36zM132 220h194l-72 290c-11 43 -21 93 -24 110h-2
c-3 -17 -13 -67 -24 -110z" />
    <glyph glyph-name="Aring" unicode="&#xc5;" horiz-adv-x="458" 
d="M227 764c-42 0 -70 28 -70 69c0 40 28 67 70 67s70 -27 70 -67c0 -41 -28 -69 -70 -69zM227 863c-19 0 -31 -13 -31 -31c0 -19 12 -31 31 -31c18 0 31 12 31 31c0 18 -13 31 -31 31zM381 0l-41 164h-222l-41 -164h-66l184 700h68l184 -700h-66zM132 220h194l-72 290
c-11 43 -21 93 -24 110h-2c-3 -17 -13 -67 -24 -110z" />
    <glyph glyph-name="Atilde" unicode="&#xc3;" horiz-adv-x="458" 
d="M192 827c-11 0 -17 -10 -19 -29h-54c2 48 28 78 68 78c41 0 57 -32 78 -32c13 0 21 10 23 29h50c-5 -48 -29 -78 -68 -78c-40 0 -56 32 -78 32zM381 0l-41 164h-222l-41 -164h-66l184 700h68l184 -700h-66zM132 220h194l-72 290c-11 43 -21 93 -24 110h-2
c-3 -17 -13 -67 -24 -110z" />
    <glyph glyph-name="AE" unicode="&#xc6;" horiz-adv-x="700" 
d="M398 57h262v-57h-324v184h-187l-79 -184h-70l309 700h340v-57h-251v-259h234v-57h-234v-270zM172 240h164v392h-1l-41 -107z" />
    <glyph glyph-name="B" unicode="B" horiz-adv-x="493" 
d="M336 363c74 -17 120 -78 120 -172c0 -125 -75 -191 -199 -191h-180v700h164c117 0 186 -66 186 -182c0 -87 -36 -140 -91 -155zM241 642h-102v-254h104c81 0 121 44 121 130c0 85 -40 124 -123 124zM257 58c91 0 136 41 136 133c0 91 -59 139 -147 139h-107v-272h118z
" />
    <glyph glyph-name="C" unicode="C" horiz-adv-x="480" 
d="M249 -12c-112 0 -191 75 -191 210v304c0 135 77 210 187 210c114 0 187 -72 194 -202h-60c-7 99 -55 146 -134 146c-75 0 -127 -50 -127 -154v-304c0 -104 54 -154 131 -154c80 0 126 49 136 146h60c-10 -128 -81 -202 -196 -202z" />
    <glyph glyph-name="Cacute" unicode="&#x106;" horiz-adv-x="480" 
d="M193 769l92 113h72l-105 -113h-59zM249 -12c-112 0 -191 75 -191 210v304c0 135 77 210 187 210c114 0 187 -72 194 -202h-60c-7 99 -55 146 -134 146c-75 0 -127 -50 -127 -154v-304c0 -104 54 -154 131 -154c80 0 126 49 136 146h60c-10 -128 -81 -202 -196 -202z" />
    <glyph glyph-name="Ccaron" unicode="&#x10c;" horiz-adv-x="480" 
d="M272 769h-64l-81 113h56l57 -70l57 70h56zM385 190h60c-10 -128 -81 -202 -196 -202c-112 0 -191 75 -191 210v304c0 135 77 210 187 210c114 0 187 -72 194 -202h-60c-7 99 -55 146 -134 146c-75 0 -127 -50 -127 -154v-304c0 -104 54 -154 131 -154
c80 0 126 49 136 146z" />
    <glyph glyph-name="Ccedilla" unicode="&#xc7;" horiz-adv-x="480" 
d="M445 190c-9 -121 -74 -194 -178 -201l-12 -39c4 1 9 1 14 1c37 0 71 -27 71 -67c0 -50 -39 -79 -92 -79c-47 0 -84 26 -88 73h49c4 -18 20 -28 41 -28c24 0 42 12 42 35s-14 34 -39 34c-12 0 -24 -3 -31 -7l-17 16l19 61c-99 11 -166 84 -166 209v304
c0 135 77 210 187 210c114 0 187 -72 194 -202h-60c-7 99 -55 146 -134 146c-75 0 -127 -50 -127 -154v-304c0 -104 54 -154 131 -154c80 0 126 49 136 146h60z" />
    <glyph glyph-name="Cdotaccent" unicode="&#x10a;" horiz-adv-x="480" 
d="M241 794c-29 0 -48 19 -48 48s19 48 48 48s48 -19 48 -48s-19 -48 -48 -48zM249 -12c-112 0 -191 75 -191 210v304c0 135 77 210 187 210c114 0 187 -72 194 -202h-60c-7 99 -55 146 -134 146c-75 0 -127 -50 -127 -154v-304c0 -104 54 -154 131 -154
c80 0 126 49 136 146h60c-10 -128 -81 -202 -196 -202z" />
    <glyph glyph-name="D" unicode="D" horiz-adv-x="500" 
d="M77 0v700h157c132 0 208 -75 208 -205v-291c0 -129 -78 -204 -208 -204h-157zM139 59h95c93 0 146 50 146 148v285c0 99 -52 149 -146 149h-95v-582z" />
    <glyph glyph-name="Eth" unicode="&#xd0;" horiz-adv-x="514" 
d="M248 700c132 0 208 -75 208 -205v-291c0 -129 -78 -204 -208 -204h-157v327h-79v55h79v318h157zM394 207v285c0 99 -52 149 -146 149h-95v-259h99v-55h-99v-268h95c93 0 146 50 146 148z" />
    <glyph glyph-name="Dcaron" unicode="&#x10e;" horiz-adv-x="500" 
d="M261 769h-64l-81 113h56l57 -70l57 70h56zM234 700c132 0 208 -75 208 -205v-291c0 -129 -78 -204 -208 -204h-157v700h157zM380 207v285c0 99 -52 149 -146 149h-95v-582h95c93 0 146 50 146 148z" />
    <glyph glyph-name="Dcroat" unicode="&#x110;" horiz-adv-x="514" 
d="M248 700c132 0 208 -75 208 -205v-291c0 -129 -78 -204 -208 -204h-157v327h-79v55h79v318h157zM394 207v285c0 99 -52 149 -146 149h-95v-259h99v-55h-99v-268h95c93 0 146 50 146 148z" />
    <glyph glyph-name="E" unicode="E" horiz-adv-x="454" 
d="M139 57h275v-57h-337v700h326v-57h-264v-259h247v-57h-247v-270z" />
    <glyph glyph-name="Eacute" unicode="&#xc9;" horiz-adv-x="454" 
d="M326 882l-105 -113h-59l92 113h72zM139 57h275v-57h-337v700h326v-57h-264v-259h247v-57h-247v-270z" />
    <glyph glyph-name="Ecaron" unicode="&#x11a;" horiz-adv-x="454" 
d="M273 769h-64l-81 113h56l57 -70l57 70h56zM139 57h275v-57h-337v700h326v-57h-264v-259h247v-57h-247v-270z" />
    <glyph glyph-name="Ecircumflex" unicode="&#xca;" horiz-adv-x="454" 
d="M242 839l-57 -70h-56l81 113h64l81 -113h-56zM139 57h275v-57h-337v700h326v-57h-264v-259h247v-57h-247v-270z" />
    <glyph glyph-name="Edieresis" unicode="&#xcb;" horiz-adv-x="454" 
d="M177 788c-24 0 -40 15 -40 39s16 39 40 39c23 0 39 -15 39 -39s-16 -39 -39 -39zM307 788c-24 0 -41 15 -41 39s17 39 41 39s40 -15 40 -39s-16 -39 -40 -39zM139 57h275v-57h-337v700h326v-57h-264v-259h247v-57h-247v-270z" />
    <glyph glyph-name="Edotaccent" unicode="&#x116;" horiz-adv-x="454" 
d="M242 794c-29 0 -48 19 -48 48s19 48 48 48s48 -19 48 -48s-19 -48 -48 -48zM139 57h275v-57h-337v700h326v-57h-264v-259h247v-57h-247v-270z" />
    <glyph glyph-name="Egrave" unicode="&#xc8;" horiz-adv-x="454" 
d="M284 769h-59l-105 113h72zM139 57h275v-57h-337v700h326v-57h-264v-259h247v-57h-247v-270z" />
    <glyph glyph-name="Emacron" unicode="&#x112;" horiz-adv-x="454" 
d="M334 849v-52h-184v52h184zM139 57h275v-57h-337v700h326v-57h-264v-259h247v-57h-247v-270z" />
    <glyph glyph-name="Eogonek" unicode="&#x118;" horiz-adv-x="462" 
d="M390 -137c13 0 23 0 32 3v-52c-11 -4 -27 -6 -41 -6c-62 0 -86 42 -86 82c0 42 25 78 64 110h-282v700h326v-57h-264v-259h247v-57h-247v-270h275v-57c-34 -27 -62 -67 -62 -97s20 -40 38 -40z" />
    <glyph glyph-name="F" unicode="F" horiz-adv-x="420" 
d="M393 643h-254v-269h237v-57h-237v-317h-62v700h316v-57z" />
    <glyph glyph-name="G" unicode="G" horiz-adv-x="496" 
d="M252 -10c-114 0 -194 75 -194 212v297c0 138 74 211 189 211c113 0 188 -71 193 -200h-60c-5 97 -55 142 -133 142c-80 0 -129 -49 -129 -154v-296c0 -105 55 -154 134 -154c80 0 135 49 135 144v125h-136v56h195v-181c0 -127 -80 -202 -194 -202z" />
    <glyph glyph-name="Gbreve" unicode="&#x11e;" horiz-adv-x="496" 
d="M240 766c-69 0 -110 42 -113 116h52c3 -44 21 -66 61 -66s58 22 61 66h52c-3 -74 -44 -116 -113 -116zM252 -10c-114 0 -194 75 -194 212v297c0 138 74 211 189 211c113 0 188 -71 193 -200h-60c-5 97 -55 142 -133 142c-80 0 -129 -49 -129 -154v-296
c0 -105 55 -154 134 -154c80 0 135 49 135 144v125h-136v56h195v-181c0 -127 -80 -202 -194 -202z" />
    <glyph glyph-name="Gcommaaccent" unicode="&#x122;" horiz-adv-x="496" 
d="M252 -10c-114 0 -194 75 -194 212v297c0 138 74 211 189 211c113 0 188 -71 193 -200h-60c-5 97 -55 142 -133 142c-80 0 -129 -49 -129 -154v-296c0 -105 55 -154 134 -154c80 0 135 49 135 144v125h-136v56h195v-181c0 -127 -80 -202 -194 -202zM191 -249l18 180h65
l-37 -180h-46z" />
    <glyph glyph-name="Gdotaccent" unicode="&#x120;" horiz-adv-x="496" 
d="M240 794c-29 0 -48 19 -48 48s19 48 48 48s48 -19 48 -48s-19 -48 -48 -48zM252 -10c-114 0 -194 75 -194 212v297c0 138 74 211 189 211c113 0 188 -71 193 -200h-60c-5 97 -55 142 -133 142c-80 0 -129 -49 -129 -154v-296c0 -105 55 -154 134 -154
c80 0 135 49 135 144v125h-136v56h195v-181c0 -127 -80 -202 -194 -202z" />
    <glyph glyph-name="H" unicode="H" horiz-adv-x="527" 
d="M388 700h62v-700h-62v327h-249v-327h-62v700h62v-315h249v315z" />
    <glyph glyph-name="Hbar" unicode="&#x126;" horiz-adv-x="552" 
d="M532 572v-46h-69v-526h-62v327h-249v-327h-62v526h-70v46h70v128h62v-128h249v128h62v-128h69zM401 385v141h-249v-141h249z" />
    <glyph glyph-name="I" unicode="I" horiz-adv-x="216" 
d="M77 700h62v-700h-62v700z" />
    <glyph glyph-name="Iacute" unicode="&#xcd;" horiz-adv-x="216" 
d="M62 769l92 113h72l-105 -113h-59zM77 700h62v-700h-62v700z" />
    <glyph glyph-name="Icircumflex" unicode="&#xce;" horiz-adv-x="216" 
d="M142 882l81 -113h-56l-57 70l-57 -70h-56l81 113h64zM77 0v700h62v-700h-62z" />
    <glyph glyph-name="Idieresis" unicode="&#xcf;" horiz-adv-x="232" 
d="M60 788c-24 0 -40 15 -40 39s16 39 40 39c23 0 39 -15 39 -39s-16 -39 -39 -39zM172 788c-24 0 -41 15 -41 39s17 39 41 39s40 -15 40 -39s-16 -39 -40 -39zM83 700h62v-700h-62v700z" />
    <glyph glyph-name="Idotaccent" unicode="&#x130;" horiz-adv-x="216" 
d="M110 794c-29 0 -48 19 -48 48s19 48 48 48s48 -19 48 -48s-19 -48 -48 -48zM77 700h62v-700h-62v700z" />
    <glyph glyph-name="Igrave" unicode="&#xcc;" horiz-adv-x="216" 
d="M152 769h-59l-105 113h72zM77 700h62v-700h-62v700z" />
    <glyph glyph-name="Imacron" unicode="&#x12a;" horiz-adv-x="216" 
d="M18 849h184v-52h-184v52zM77 700h62v-700h-62v700z" />
    <glyph glyph-name="Iogonek" unicode="&#x12e;" horiz-adv-x="212" 
d="M127 -137c13 0 23 0 32 3v-52c-11 -4 -27 -6 -41 -6c-64 0 -89 42 -89 85c0 37 13 71 46 107v700h62v-700c-28 -27 -51 -69 -51 -97c0 -31 22 -40 41 -40z" />
    <glyph glyph-name="J" unicode="J" horiz-adv-x="248" 
d="M0 -81v59c74 0 113 34 113 139v583h62v-583c0 -138 -63 -198 -175 -198z" />
    <glyph glyph-name="K" unicode="K" horiz-adv-x="480" 
d="M406 0l-217 341l-50 -68v-273h-62v700h62v-334l57 82l179 252h77l-223 -305l251 -395h-74z" />
    <glyph glyph-name="Kcommaaccent" unicode="&#x136;" horiz-adv-x="480" 
d="M229 395l251 -395h-74l-217 341l-50 -68v-273h-62v700h62v-334l57 82l179 252h77zM203 -249l18 180h65l-37 -180h-46z" />
    <glyph glyph-name="L" unicode="L" horiz-adv-x="403" 
d="M139 59h256v-59h-318v700h62v-641z" />
    <glyph glyph-name="Lacute" unicode="&#x139;" horiz-adv-x="381" 
d="M235 882l-105 -113h-59l92 113h72zM139 59h256v-59h-318v700h62v-641z" />
    <glyph glyph-name="Lcaron" unicode="&#x13d;" horiz-adv-x="386" 
d="M139 57h239v-57h-301v700h62v-643zM319 700l-32 -174h-42l9 174h65z" />
    <glyph glyph-name="Lcommaaccent" unicode="&#x13b;" horiz-adv-x="403" 
d="M139 59h256v-59h-318v700h62v-641zM160 -249l18 180h65l-37 -180h-46z" />
    <glyph glyph-name="Lslash" unicode="&#x141;" horiz-adv-x="414" 
d="M167 57h239v-57h-301v319l-81 -31v59l81 31v322h62v-298l131 50v-59l-131 -50v-286z" />
    <glyph glyph-name="M" unicode="M" horiz-adv-x="652" 
d="M509 700h66v-700h-62v370c0 74 2 136 6 198l-4 1c-18 -50 -46 -117 -72 -184l-86 -220h-62l-86 220c-26 67 -54 134 -72 184l-4 -1c4 -62 6 -124 6 -198v-370h-62v700h66l125 -302c18 -45 43 -117 56 -156h4c13 39 38 111 56 156z" />
    <glyph glyph-name="N" unicode="N" horiz-adv-x="540" 
d="M401 700h62v-700h-64l-191 411c-22 47 -58 135 -71 170l-3 -1c2 -53 5 -133 5 -188v-392h-62v700h64l189 -408c24 -50 60 -133 76 -173l3 1c-3 51 -8 142 -8 202v378z" />
    <glyph glyph-name="Nacute" unicode="&#x143;" horiz-adv-x="540" 
d="M222 769l92 113h72l-105 -113h-59zM401 700h62v-700h-64l-191 411c-22 47 -58 135 -71 170l-3 -1c2 -53 5 -133 5 -188v-392h-62v700h64l189 -408c24 -50 60 -133 76 -173l3 1c-3 51 -8 142 -8 202v378z" />
    <glyph glyph-name="Ncaron" unicode="&#x147;" horiz-adv-x="540" 
d="M301 769h-64l-81 113h56l57 -70l57 70h56zM401 700h62v-700h-64l-191 411c-22 47 -58 135 -71 170l-3 -1c2 -53 5 -133 5 -188v-392h-62v700h64l189 -408c24 -50 60 -133 76 -173l3 1c-3 51 -8 142 -8 202v378z" />
    <glyph glyph-name="Ncommaaccent" unicode="&#x145;" horiz-adv-x="540" 
d="M401 700h62v-700h-64l-191 411c-22 47 -58 135 -71 170l-3 -1c2 -53 5 -133 5 -188v-392h-62v700h64l189 -408c24 -50 60 -133 76 -173l3 1c-3 51 -8 142 -8 202v378zM221 -249l18 180h65l-37 -180h-46z" />
    <glyph glyph-name="Eng" unicode="&#x14a;" horiz-adv-x="540" 
d="M401 700h62v-730c0 -97 -53 -161 -168 -162v57c80 2 109 39 109 105v22l-200 427c-24 51 -54 127 -67 162l-3 -1c2 -53 5 -133 5 -188v-392h-62v700h64l195 -416c24 -56 56 -135 73 -181l3 1c-5 54 -11 150 -11 213v383z" />
    <glyph glyph-name="Ntilde" unicode="&#xd1;" horiz-adv-x="540" 
d="M235 827c-11 0 -17 -10 -19 -29h-54c2 48 28 78 68 78c41 0 57 -32 78 -32c13 0 21 10 23 29h50c-5 -48 -29 -78 -68 -78c-40 0 -56 32 -78 32zM401 700h62v-700h-64l-191 411c-22 47 -58 135 -71 170l-3 -1c2 -53 5 -133 5 -188v-392h-62v700h64l189 -408
c24 -50 60 -133 76 -173l3 1c-3 51 -8 142 -8 202v378z" />
    <glyph glyph-name="O" unicode="O" horiz-adv-x="518" 
d="M259 -13c-126 0 -201 89 -201 230v266c0 141 75 230 201 230s201 -89 201 -230v-266c0 -141 -75 -230 -201 -230zM259 47c91 0 138 62 138 170v266c0 108 -47 170 -138 170s-138 -62 -138 -170v-266c0 -108 47 -170 138 -170z" />
    <glyph glyph-name="Oacute" unicode="&#xd3;" horiz-adv-x="518" 
d="M211 769l92 113h72l-105 -113h-59zM259 -13c-126 0 -201 89 -201 230v266c0 141 75 230 201 230s201 -89 201 -230v-266c0 -141 -75 -230 -201 -230zM259 47c91 0 138 62 138 170v266c0 108 -47 170 -138 170s-138 -62 -138 -170v-266c0 -108 47 -170 138 -170z" />
    <glyph glyph-name="Ocircumflex" unicode="&#xd4;" horiz-adv-x="518" 
d="M259 839l-57 -70h-56l81 113h64l81 -113h-56zM259 713c126 0 201 -89 201 -230v-266c0 -141 -75 -230 -201 -230s-201 89 -201 230v266c0 141 75 230 201 230zM397 217v266c0 108 -47 170 -138 170s-138 -62 -138 -170v-266c0 -108 47 -170 138 -170s138 62 138 170z" />
    <glyph glyph-name="Odieresis" unicode="&#xd6;" horiz-adv-x="518" 
d="M194 788c-24 0 -40 15 -40 39s16 39 40 39c23 0 39 -15 39 -39s-16 -39 -39 -39zM324 788c-24 0 -41 15 -41 39s17 39 41 39s40 -15 40 -39s-16 -39 -40 -39zM259 -13c-126 0 -201 89 -201 230v266c0 141 75 230 201 230s201 -89 201 -230v-266
c0 -141 -75 -230 -201 -230zM259 47c91 0 138 62 138 170v266c0 108 -47 170 -138 170s-138 -62 -138 -170v-266c0 -108 47 -170 138 -170z" />
    <glyph glyph-name="Ograve" unicode="&#xd2;" horiz-adv-x="518" 
d="M301 769h-59l-105 113h72zM259 -13c-126 0 -201 89 -201 230v266c0 141 75 230 201 230s201 -89 201 -230v-266c0 -141 -75 -230 -201 -230zM259 47c91 0 138 62 138 170v266c0 108 -47 170 -138 170s-138 -62 -138 -170v-266c0 -108 47 -170 138 -170z" />
    <glyph glyph-name="Ohungarumlaut" unicode="&#x150;" horiz-adv-x="518" 
d="M300 882l-82 -113h-53l68 113h67zM402 882l-86 -113h-53l72 113h67zM259 -13c-126 0 -201 89 -201 230v266c0 141 75 230 201 230s201 -89 201 -230v-266c0 -141 -75 -230 -201 -230zM259 47c91 0 138 62 138 170v266c0 108 -47 170 -138 170s-138 -62 -138 -170v-266
c0 -108 47 -170 138 -170z" />
    <glyph glyph-name="Omacron" unicode="&#x14c;" horiz-adv-x="518" 
d="M167 849h184v-52h-184v52zM259 -13c-126 0 -201 89 -201 230v266c0 141 75 230 201 230s201 -89 201 -230v-266c0 -141 -75 -230 -201 -230zM259 47c91 0 138 62 138 170v266c0 108 -47 170 -138 170s-138 -62 -138 -170v-266c0 -108 47 -170 138 -170z" />
    <glyph glyph-name="Oslash" unicode="&#xd8;" horiz-adv-x="512" 
d="M388 664c42 -39 66 -102 66 -182v-264c0 -141 -74 -230 -198 -230c-27 0 -51 4 -73 12l-18 -60h-59l27 88c-48 39 -75 105 -75 190v264c0 141 74 230 198 230c31 0 58 -5 82 -16l20 64h59zM121 218c0 -53 11 -94 33 -123l166 543c-18 9 -39 14 -64 14
c-89 0 -135 -62 -135 -170v-264zM391 218v264c0 46 -8 84 -25 112l-165 -536c16 -7 34 -10 55 -10c89 0 135 62 135 170z" />
    <glyph glyph-name="Otilde" unicode="&#xd5;" horiz-adv-x="518" 
d="M224 827c-11 0 -17 -10 -19 -29h-54c2 48 28 78 68 78c41 0 57 -32 78 -32c13 0 21 10 23 29h50c-5 -48 -29 -78 -68 -78c-40 0 -56 32 -78 32zM259 -13c-126 0 -201 89 -201 230v266c0 141 75 230 201 230s201 -89 201 -230v-266c0 -141 -75 -230 -201 -230zM259 47
c91 0 138 62 138 170v266c0 108 -47 170 -138 170s-138 -62 -138 -170v-266c0 -108 47 -170 138 -170z" />
    <glyph glyph-name="OE" unicode="&#x152;" horiz-adv-x="775" 
d="M460 57h275v-57h-337v54c-33 -43 -82 -67 -139 -67c-126 0 -201 89 -201 230v266c0 141 75 230 201 230c57 0 106 -24 139 -67v54h326v-57h-264v-259h247v-57h-247v-270zM397 217v266c0 108 -47 170 -138 170s-138 -62 -138 -170v-266c0 -108 47 -170 138 -170
s138 62 138 170z" />
    <glyph glyph-name="P" unicode="P" horiz-adv-x="480" 
d="M245 700c129 0 200 -78 200 -215c0 -144 -71 -220 -200 -220h-106v-265h-62v700h168zM245 324c94 0 138 50 138 161c0 104 -44 156 -138 156h-106v-317h106z" />
    <glyph glyph-name="Thorn" unicode="&#xde;" horiz-adv-x="468" 
d="M245 578c129 0 200 -78 200 -215c0 -144 -71 -220 -200 -220h-106v-143h-62v700h62v-122h106zM245 202c94 0 138 50 138 161c0 104 -44 156 -138 156h-106v-317h106z" />
    <glyph glyph-name="Q" unicode="Q" horiz-adv-x="519" 
d="M461 -23l-40 -35l-58 71c-29 -17 -64 -26 -104 -26c-126 0 -201 89 -201 230v266c0 141 75 230 201 230s201 -89 201 -230v-266c0 -72 -20 -131 -56 -171zM259 47c25 0 47 5 65 14l-71 86l40 35l72 -87c21 29 32 70 32 122v266c0 108 -47 170 -138 170
s-138 -62 -138 -170v-266c0 -108 47 -170 138 -170z" />
    <glyph glyph-name="R" unicode="R" horiz-adv-x="483" 
d="M383 0l-167 273h-77v-273h-62v700h160c129 0 200 -75 200 -205c0 -122 -58 -200 -154 -218l172 -277h-72zM139 642v-311h97c91 0 138 57 138 160c0 100 -47 151 -137 151h-98z" />
    <glyph glyph-name="Racute" unicode="&#x154;" horiz-adv-x="483" 
d="M353 882l-105 -113h-59l92 113h72zM383 0l-167 273h-77v-273h-62v700h160c129 0 200 -75 200 -205c0 -122 -58 -200 -154 -218l172 -277h-72zM139 642v-311h97c91 0 138 57 138 160c0 100 -47 151 -137 151h-98z" />
    <glyph glyph-name="Rcaron" unicode="&#x158;" horiz-adv-x="483" 
d="M268 769h-64l-81 113h56l57 -70l57 70h56zM383 0l-167 273h-77v-273h-62v700h160c129 0 200 -75 200 -205c0 -122 -58 -200 -154 -218l172 -277h-72zM139 642v-311h97c91 0 138 57 138 160c0 100 -47 151 -137 151h-98z" />
    <glyph glyph-name="Rcommaaccent" unicode="&#x156;" horiz-adv-x="483" 
d="M283 277l172 -277h-72l-167 273h-77v-273h-62v700h160c129 0 200 -75 200 -205c0 -122 -58 -200 -154 -218zM139 642v-311h97c91 0 138 57 138 160c0 100 -47 151 -137 151h-98zM189 -249l18 180h65l-37 -180h-46z" />
    <glyph glyph-name="S" unicode="S" horiz-adv-x="451" 
d="M227 -13c-116 0 -192 77 -195 193h62c3 -87 53 -133 131 -133c85 0 127 53 127 129c0 162 -310 163 -310 366c0 96 73 171 181 171c110 0 178 -78 183 -188h-62c-4 88 -52 128 -119 128c-76 0 -120 -44 -120 -111c0 -162 310 -156 310 -366c0 -95 -65 -189 -188 -189z
" />
    <glyph glyph-name="Sacute" unicode="&#x15a;" horiz-adv-x="451" 
d="M179 769l92 113h72l-105 -113h-59zM227 -13c-116 0 -192 77 -195 193h62c3 -87 53 -133 131 -133c85 0 127 53 127 129c0 162 -310 163 -310 366c0 96 73 171 181 171c110 0 178 -78 183 -188h-62c-4 88 -52 128 -119 128c-76 0 -120 -44 -120 -111
c0 -162 310 -156 310 -366c0 -95 -65 -189 -188 -189z" />
    <glyph glyph-name="Scaron" unicode="&#x160;" horiz-adv-x="451" 
d="M258 769h-64l-81 113h56l57 -70l57 70h56zM105 542c0 -162 310 -156 310 -366c0 -95 -65 -189 -188 -189c-116 0 -192 77 -195 193h62c3 -87 53 -133 131 -133c85 0 127 53 127 129c0 162 -310 163 -310 366c0 96 73 171 181 171c110 0 178 -78 183 -188h-62
c-4 88 -52 128 -119 128c-76 0 -120 -44 -120 -111z" />
    <glyph glyph-name="Scedilla" unicode="&#x15e;" horiz-adv-x="451" 
d="M415 176c0 -90 -59 -180 -171 -188l-11 -38c4 1 9 1 14 1c37 0 71 -27 71 -67c0 -50 -39 -79 -92 -79c-47 0 -84 26 -88 73h49c4 -18 20 -28 41 -28c24 0 42 12 42 35s-14 34 -39 34c-12 0 -24 -3 -31 -7l-17 16l18 60c-101 11 -166 85 -169 192h62
c3 -87 53 -133 131 -133c85 0 127 53 127 129c0 162 -310 163 -310 366c0 96 73 171 181 171c110 0 178 -78 183 -188h-62c-4 88 -52 128 -119 128c-76 0 -120 -44 -120 -111c0 -162 310 -156 310 -366z" />
    <glyph glyph-name="Scommaaccent" unicode="&#x218;" horiz-adv-x="451" 
d="M227 -13c-116 0 -192 77 -195 193h62c3 -87 53 -133 131 -133c85 0 127 53 127 129c0 162 -310 163 -310 366c0 96 73 171 181 171c110 0 178 -78 183 -188h-62c-4 88 -52 128 -119 128c-76 0 -120 -44 -120 -111c0 -162 310 -156 310 -366c0 -95 -65 -189 -188 -189z
M191 -249l18 180h65l-37 -180h-46z" />
    <glyph glyph-name="T" unicode="T" horiz-adv-x="406" 
d="M388 700v-58h-154v-642h-62v642h-154v58h370z" />
    <glyph glyph-name="Tbar" unicode="&#x166;" horiz-adv-x="406" 
d="M388 642h-154v-259h84v-46h-84v-337h-62v337h-84v46h84v259h-154v58h370v-58z" />
    <glyph glyph-name="Tcaron" unicode="&#x164;" horiz-adv-x="406" 
d="M234 769h-64l-81 113h56l57 -70l57 70h56zM388 700v-58h-154v-642h-62v642h-154v58h370z" />
    <glyph glyph-name="uni0162" unicode="&#x162;" horiz-adv-x="406" 
d="M18 700h370v-58h-154v-642h-62v642h-154v58zM155 -249l18 180h65l-37 -180h-46z" />
    <glyph glyph-name="uni021A" unicode="&#x21a;" horiz-adv-x="406" 
d="M18 700h370v-58h-154v-642h-62v642h-154v58zM155 -249l18 180h65l-37 -180h-46z" />
    <glyph glyph-name="U" unicode="U" horiz-adv-x="514" 
d="M257 -9c-112 0 -191 74 -191 216v493h62v-493c0 -108 53 -156 129 -156s129 48 129 156v493h62v-493c0 -142 -79 -216 -191 -216z" />
    <glyph glyph-name="Uacute" unicode="&#xda;" horiz-adv-x="514" 
d="M209 769l92 113h72l-105 -113h-59zM257 -9c-112 0 -191 74 -191 216v493h62v-493c0 -108 53 -156 129 -156s129 48 129 156v493h62v-493c0 -142 -79 -216 -191 -216z" />
    <glyph glyph-name="Ucircumflex" unicode="&#xdb;" horiz-adv-x="514" 
d="M257 839l-57 -70h-56l81 113h64l81 -113h-56zM386 700h62v-493c0 -142 -79 -216 -191 -216s-191 74 -191 216v493h62v-493c0 -108 53 -156 129 -156s129 48 129 156v493z" />
    <glyph glyph-name="Udieresis" unicode="&#xdc;" horiz-adv-x="514" 
d="M192 788c-24 0 -40 15 -40 39s16 39 40 39c23 0 39 -15 39 -39s-16 -39 -39 -39zM322 788c-24 0 -41 15 -41 39s17 39 41 39s40 -15 40 -39s-16 -39 -40 -39zM257 -9c-112 0 -191 74 -191 216v493h62v-493c0 -108 53 -156 129 -156s129 48 129 156v493h62v-493
c0 -142 -79 -216 -191 -216z" />
    <glyph glyph-name="Ugrave" unicode="&#xd9;" horiz-adv-x="514" 
d="M299 769h-59l-105 113h72zM257 -9c-112 0 -191 74 -191 216v493h62v-493c0 -108 53 -156 129 -156s129 48 129 156v493h62v-493c0 -142 -79 -216 -191 -216z" />
    <glyph glyph-name="Uhungarumlaut" unicode="&#x170;" horiz-adv-x="514" 
d="M298 882l-82 -113h-53l68 113h67zM400 882l-86 -113h-53l72 113h67zM257 -9c-112 0 -191 74 -191 216v493h62v-493c0 -108 53 -156 129 -156s129 48 129 156v493h62v-493c0 -142 -79 -216 -191 -216z" />
    <glyph glyph-name="Umacron" unicode="&#x16a;" horiz-adv-x="514" 
d="M165 849h184v-52h-184v52zM257 -9c-112 0 -191 74 -191 216v493h62v-493c0 -108 53 -156 129 -156s129 48 129 156v493h62v-493c0 -142 -79 -216 -191 -216z" />
    <glyph glyph-name="Uogonek" unicode="&#x172;" horiz-adv-x="508" 
d="M327 -192c-62 0 -86 41 -86 82c0 46 31 87 70 119l-1 1c-15 -11 -34 -19 -55 -19c-111 0 -189 74 -189 206v503h62v-503c0 -98 52 -146 126 -146s126 48 126 146v503h62v-503c0 -91 -30 -128 -57 -155c-46 -47 -87 -96 -87 -140c0 -32 21 -39 38 -39c13 0 23 0 32 3v-52
c-11 -4 -27 -6 -41 -6z" />
    <glyph glyph-name="Uring" unicode="&#x16e;" horiz-adv-x="514" 
d="M187 833c0 40 28 67 70 67s70 -27 70 -67c0 -41 -28 -69 -70 -69s-70 28 -70 69zM226 832c0 -19 12 -31 31 -31c18 0 31 12 31 31c0 18 -13 31 -31 31c-19 0 -31 -13 -31 -31zM257 -9c-112 0 -191 74 -191 216v493h62v-493c0 -108 53 -156 129 -156s129 48 129 156v493
h62v-493c0 -142 -79 -216 -191 -216z" />
    <glyph glyph-name="V" unicode="V" horiz-adv-x="450" 
d="M189 0l-178 700h66l105 -438c17 -72 28 -124 41 -177h4c13 53 24 105 41 177l105 438h66l-178 -700h-72z" />
    <glyph glyph-name="W" unicode="W" horiz-adv-x="712" 
d="M636 700h65l-155 -700h-69l-85 381c-13 56 -29 164 -34 220h-4c-5 -56 -21 -164 -34 -220l-85 -381h-69l-155 700h65l88 -432c10 -51 30 -148 34 -178h4c6 30 22 117 36 188l84 411h68l84 -411c14 -71 30 -158 36 -188h4c4 30 24 127 34 178z" />
    <glyph glyph-name="Wacute" unicode="&#x1e82;" horiz-adv-x="712" 
d="M308 769l92 113h72l-105 -113h-59zM636 700h65l-155 -700h-69l-85 381c-13 56 -29 164 -34 220h-4c-5 -56 -21 -164 -34 -220l-85 -381h-69l-155 700h65l88 -432c10 -51 30 -148 34 -178h4c6 30 22 117 36 188l84 411h68l84 -411c14 -71 30 -158 36 -188h4
c4 30 24 127 34 178z" />
    <glyph glyph-name="Wcircumflex" unicode="&#x174;" horiz-adv-x="712" 
d="M356 839l-57 -70h-56l81 113h64l81 -113h-56zM636 700h65l-155 -700h-69l-85 381c-13 56 -29 164 -34 220h-4c-5 -56 -21 -164 -34 -220l-85 -381h-69l-155 700h65l88 -432c10 -51 30 -148 34 -178h4c6 30 22 117 36 188l84 411h68l84 -411c14 -71 30 -158 36 -188h4
c4 30 24 127 34 178z" />
    <glyph glyph-name="Wdieresis" unicode="&#x1e84;" horiz-adv-x="712" 
d="M291 788c-24 0 -40 15 -40 39s16 39 40 39c23 0 39 -15 39 -39s-16 -39 -39 -39zM421 788c-24 0 -41 15 -41 39s17 39 41 39s40 -15 40 -39s-16 -39 -40 -39zM636 700h65l-155 -700h-69l-85 381c-13 56 -29 164 -34 220h-4c-5 -56 -21 -164 -34 -220l-85 -381h-69
l-155 700h65l88 -432c10 -51 30 -148 34 -178h4c6 30 22 117 36 188l84 411h68l84 -411c14 -71 30 -158 36 -188h4c4 30 24 127 34 178z" />
    <glyph glyph-name="Wgrave" unicode="&#x1e80;" horiz-adv-x="712" 
d="M398 769h-59l-105 113h72zM636 700h65l-155 -700h-69l-85 381c-13 56 -29 164 -34 220h-4c-5 -56 -21 -164 -34 -220l-85 -381h-69l-155 700h65l88 -432c10 -51 30 -148 34 -178h4c6 30 22 117 36 188l84 411h68l84 -411c14 -71 30 -158 36 -188h4c4 30 24 127 34 178z
" />
    <glyph glyph-name="X" unicode="X" horiz-adv-x="449" 
d="M430 0h-69l-136 305l-136 -305h-69l169 364l-160 336h69l127 -279l127 279h69l-160 -336z" />
    <glyph glyph-name="Y" unicode="Y" horiz-adv-x="422" 
d="M180 0v251l-175 449h66l100 -270c13 -36 27 -72 40 -108l40 109l100 269h66l-175 -449v-251h-62z" />
    <glyph glyph-name="Yacute" unicode="&#xdd;" horiz-adv-x="422" 
d="M163 769l92 113h72l-105 -113h-59zM180 0v251l-175 449h66l100 -270c13 -36 27 -72 40 -108l40 109l100 269h66l-175 -449v-251h-62z" />
    <glyph glyph-name="Ycircumflex" unicode="&#x176;" horiz-adv-x="422" 
d="M211 839l-57 -70h-56l81 113h64l81 -113h-56zM351 700h66l-175 -449v-251h-62v251l-175 449h66l100 -270c13 -36 27 -72 40 -108l40 109z" />
    <glyph glyph-name="Ydieresis" unicode="&#x178;" horiz-adv-x="422" 
d="M146 788c-24 0 -40 15 -40 39s16 39 40 39c23 0 39 -15 39 -39s-16 -39 -39 -39zM276 788c-24 0 -41 15 -41 39s17 39 41 39s40 -15 40 -39s-16 -39 -40 -39zM180 0v251l-175 449h66l100 -270c13 -36 27 -72 40 -108l40 109l100 269h66l-175 -449v-251h-62z" />
    <glyph glyph-name="Ygrave" unicode="&#x1ef2;" horiz-adv-x="422" 
d="M253 769h-59l-105 113h72zM180 0v251l-175 449h66l100 -270c13 -36 27 -72 40 -108l40 109l100 269h66l-175 -449v-251h-62z" />
    <glyph glyph-name="Z" unicode="Z" horiz-adv-x="409" 
d="M93 58h285v-58h-358v47l278 595h-265v58h340v-42z" />
    <glyph glyph-name="Zacute" unicode="&#x179;" horiz-adv-x="409" 
d="M148 769l92 113h72l-105 -113h-59zM93 58h285v-58h-358v47l278 595h-265v58h340v-42z" />
    <glyph glyph-name="Zcaron" unicode="&#x17d;" horiz-adv-x="409" 
d="M227 769h-64l-81 113h56l57 -70l57 70h56zM93 58h285v-58h-358v47l278 595h-265v58h340v-42z" />
    <glyph glyph-name="Zdotaccent" unicode="&#x17b;" horiz-adv-x="409" 
d="M195 797c-29 0 -48 19 -48 48s19 48 48 48s48 -19 48 -48s-19 -48 -48 -48zM93 58h285v-58h-358v47l278 595h-265v58h340v-42z" />
    <glyph glyph-name="uni0162.ss01" horiz-adv-x="406" 
d="M234 0h-10l-16 -51c3 1 10 2 15 2c35 0 68 -27 68 -70c0 -45 -38 -73 -89 -73c-47 0 -84 26 -88 71h49c4 -18 20 -28 41 -28c24 0 42 12 42 33c0 24 -14 35 -39 35c-12 0 -24 -3 -31 -7l-16 16l22 72h-10v642h-154v58h370v-58h-154v-642z" />
    <glyph glyph-name="a" unicode="a" horiz-adv-x="447" 
d="M220 537c100 0 161 -67 161 -174v-363h-51l-5 49c-24 -35 -64 -61 -121 -61c-96 0 -166 59 -166 161c0 101 65 157 180 157h104v56c0 77 -36 118 -104 118c-60 0 -101 -34 -105 -92h-59c4 90 69 149 166 149zM213 46c67 0 109 42 109 102v103h-106
c-77 0 -118 -36 -118 -103c0 -69 47 -102 115 -102z" />
    <glyph glyph-name="aacute" unicode="&#xe1;" horiz-adv-x="447" 
d="M310 723l-87 -113h-58l75 113h70zM220 537c100 0 161 -67 161 -174v-363h-51l-5 49c-24 -35 -64 -61 -121 -61c-96 0 -166 59 -166 161c0 101 65 157 180 157h104v56c0 77 -36 118 -104 118c-60 0 -101 -34 -105 -92h-59c4 90 69 149 166 149zM213 46
c67 0 109 42 109 102v103h-106c-77 0 -118 -36 -118 -103c0 -69 47 -102 115 -102z" />
    <glyph glyph-name="abreve" unicode="&#x103;" horiz-adv-x="447" 
d="M218 607c-69 0 -110 42 -113 116h52c3 -44 21 -66 61 -66s58 22 61 66h52c-3 -74 -44 -116 -113 -116zM220 537c100 0 161 -67 161 -174v-363h-51l-5 49c-24 -35 -64 -61 -121 -61c-96 0 -166 59 -166 161c0 101 65 157 180 157h104v56c0 77 -36 118 -104 118
c-60 0 -101 -34 -105 -92h-59c4 90 69 149 166 149zM213 46c67 0 109 42 109 102v103h-106c-77 0 -118 -36 -118 -103c0 -69 47 -102 115 -102z" />
    <glyph glyph-name="acircumflex" unicode="&#xe2;" horiz-adv-x="447" 
d="M218 679l-57 -70h-56l81 113h64l81 -113h-56zM220 537c100 0 161 -67 161 -174v-363h-51l-5 49c-24 -35 -64 -61 -121 -61c-96 0 -166 59 -166 161c0 101 65 157 180 157h104v56c0 77 -36 118 -104 118c-60 0 -101 -34 -105 -92h-59c4 90 69 149 166 149zM213 46
c67 0 109 42 109 102v103h-106c-77 0 -118 -36 -118 -103c0 -69 47 -102 115 -102z" />
    <glyph glyph-name="adieresis" unicode="&#xe4;" horiz-adv-x="447" 
d="M159 631c-24 0 -40 15 -40 39s16 39 40 39c23 0 39 -15 39 -39s-16 -39 -39 -39zM277 631c-24 0 -41 15 -41 39s17 39 41 39s40 -15 40 -39s-16 -39 -40 -39zM220 537c100 0 161 -67 161 -174v-363h-51l-5 49c-24 -35 -64 -61 -121 -61c-96 0 -166 59 -166 161
c0 101 65 157 180 157h104v56c0 77 -36 118 -104 118c-60 0 -101 -34 -105 -92h-59c4 90 69 149 166 149zM213 46c67 0 109 42 109 102v103h-106c-77 0 -118 -36 -118 -103c0 -69 47 -102 115 -102z" />
    <glyph glyph-name="agrave" unicode="&#xe0;" horiz-adv-x="447" 
d="M266 610h-58l-87 113h70zM220 537c100 0 161 -67 161 -174v-363h-51l-5 49c-24 -35 -64 -61 -121 -61c-96 0 -166 59 -166 161c0 101 65 157 180 157h104v56c0 77 -36 118 -104 118c-60 0 -101 -34 -105 -92h-59c4 90 69 149 166 149zM213 46c67 0 109 42 109 102v103
h-106c-77 0 -118 -36 -118 -103c0 -69 47 -102 115 -102z" />
    <glyph glyph-name="amacron" unicode="&#x101;" horiz-adv-x="447" 
d="M310 689v-50h-184v50h184zM220 537c100 0 161 -67 161 -174v-363h-51l-5 49c-24 -35 -64 -61 -121 -61c-96 0 -166 59 -166 161c0 101 65 157 180 157h104v56c0 77 -36 118 -104 118c-60 0 -101 -34 -105 -92h-59c4 90 69 149 166 149zM213 46c67 0 109 42 109 102v103
h-106c-77 0 -118 -36 -118 -103c0 -69 47 -102 115 -102z" />
    <glyph glyph-name="aogonek" unicode="&#x105;" horiz-adv-x="447" 
d="M340 -192c-62 0 -86 41 -86 81c0 42 30 79 76 111l-5 49c-24 -35 -64 -61 -121 -61c-96 0 -166 59 -166 161c0 101 65 157 180 157h104v56c0 77 -36 118 -104 118c-60 0 -101 -34 -105 -92h-59c4 90 69 149 166 149c100 0 161 -67 161 -174v-363
c-39 -28 -70 -70 -70 -101c0 -27 20 -36 38 -36c13 0 23 0 32 3v-52c-11 -4 -27 -6 -41 -6zM213 46c67 0 109 42 109 102v103h-106c-77 0 -118 -36 -118 -103c0 -69 47 -102 115 -102z" />
    <glyph glyph-name="aring" unicode="&#xe5;" horiz-adv-x="447" 
d="M218 606c-42 0 -70 28 -70 69c0 40 28 67 70 67s70 -27 70 -67c0 -41 -28 -69 -70 -69zM218 705c-19 0 -31 -13 -31 -31c0 -19 12 -31 31 -31c18 0 31 12 31 31c0 18 -13 31 -31 31zM220 537c100 0 161 -67 161 -174v-363h-51l-5 49c-24 -35 -64 -61 -121 -61
c-96 0 -166 59 -166 161c0 101 65 157 180 157h104v56c0 77 -36 118 -104 118c-60 0 -101 -34 -105 -92h-59c4 90 69 149 166 149zM213 46c67 0 109 42 109 102v103h-106c-77 0 -118 -36 -118 -103c0 -69 47 -102 115 -102z" />
    <glyph glyph-name="atilde" unicode="&#xe3;" horiz-adv-x="447" 
d="M181 657c-11 0 -17 -10 -19 -29h-54c2 48 28 78 68 78c41 0 57 -32 78 -32c13 0 21 10 23 29h50c-5 -48 -29 -78 -68 -78c-40 0 -56 32 -78 32zM220 537c100 0 161 -67 161 -174v-363h-51l-5 49c-24 -35 -64 -61 -121 -61c-96 0 -166 59 -166 161c0 101 65 157 180 157
h104v56c0 77 -36 118 -104 118c-60 0 -101 -34 -105 -92h-59c4 90 69 149 166 149zM213 46c67 0 109 42 109 102v103h-106c-77 0 -118 -36 -118 -103c0 -69 47 -102 115 -102z" />
    <glyph glyph-name="ae" unicode="&#xe6;" horiz-adv-x="686" 
d="M582 171h59c0 -116 -66 -181 -166 -181c-60 0 -108 26 -135 72c-22 -42 -74 -71 -141 -71c-94 0 -161 61 -161 158c0 100 66 151 185 151h88v72c0 66 -34 107 -95 107c-62 0 -99 -34 -103 -91h-59c4 90 68 149 165 149c55 0 99 -27 124 -72c28 47 76 72 132 72
c99 0 164 -67 164 -187v-104h-268v-69c0 -88 39 -129 104 -129c67 0 107 39 107 123zM371 350v-52h209v52c0 88 -39 129 -105 129c-65 0 -104 -41 -104 -129zM311 146v100h-91c-81 0 -122 -31 -122 -98c0 -68 44 -102 114 -102c63 0 99 41 99 100z" />
    <glyph glyph-name="b" unicode="b" horiz-adv-x="462" 
d="M246 537c101 0 163 -67 163 -197v-151c0 -133 -68 -201 -163 -201c-51 0 -96 22 -124 61l-8 -49h-48v724h58v-246c29 40 75 59 122 59zM349 189v151c0 100 -39 142 -116 142c-66 0 -109 -58 -109 -142v-153c0 -98 49 -144 109 -144c73 0 116 43 116 146z" />
    <glyph glyph-name="c" unicode="c" horiz-adv-x="432" 
d="M221 -10c-101 0 -168 67 -168 187v173c0 120 67 187 168 187c104 0 170 -67 173 -187h-60c-3 88 -43 129 -113 129c-67 0 -108 -41 -108 -129v-173c0 -88 41 -129 108 -129c70 0 111 41 114 129h60c-3 -120 -70 -187 -174 -187z" />
    <glyph glyph-name="cacute" unicode="&#x107;" horiz-adv-x="432" 
d="M311 723l-87 -113h-58l75 113h70zM221 -10c-101 0 -168 67 -168 187v173c0 120 67 187 168 187c104 0 170 -67 173 -187h-60c-3 88 -43 129 -113 129c-67 0 -108 -41 -108 -129v-173c0 -88 41 -129 108 -129c70 0 111 41 114 129h60c-3 -120 -70 -187 -174 -187z" />
    <glyph glyph-name="ccaron" unicode="&#x10d;" horiz-adv-x="432" 
d="M251 610h-64l-81 113h56l57 -70l57 70h56zM335 177h60c-3 -120 -70 -187 -174 -187c-101 0 -168 67 -168 187v173c0 120 67 187 168 187c104 0 170 -67 173 -187h-60c-3 88 -43 129 -113 129c-67 0 -108 -41 -108 -129v-173c0 -88 41 -129 108 -129c70 0 111 41 114 129z
" />
    <glyph glyph-name="ccedilla" unicode="&#xe7;" horiz-adv-x="432" 
d="M395 177c-3 -114 -63 -180 -158 -186l-12 -41c4 1 9 1 14 1c37 0 71 -27 71 -67c0 -50 -39 -79 -92 -79c-47 0 -84 26 -88 73h49c4 -18 20 -28 41 -28c24 0 42 12 42 35s-14 34 -39 34c-12 0 -24 -3 -31 -7l-17 16l19 64c-86 11 -141 76 -141 185v173
c0 120 67 187 168 187c104 0 170 -67 173 -187h-60c-3 88 -43 129 -113 129c-67 0 -108 -41 -108 -129v-173c0 -88 41 -129 108 -129c70 0 111 41 114 129h60z" />
    <glyph glyph-name="cdotaccent" unicode="&#x10b;" horiz-adv-x="432" 
d="M218 622c-29 0 -48 19 -48 48s19 48 48 48s48 -19 48 -48s-19 -48 -48 -48zM221 -10c-101 0 -168 67 -168 187v173c0 120 67 187 168 187c104 0 170 -67 173 -187h-60c-3 88 -43 129 -113 129c-67 0 -108 -41 -108 -129v-173c0 -88 41 -129 108 -129c70 0 111 41 114 129
h60c-3 -120 -70 -187 -174 -187z" />
    <glyph glyph-name="d" unicode="d" horiz-adv-x="462" 
d="M338 724h58v-724h-48l-8 49c-28 -39 -73 -61 -124 -61c-95 0 -163 68 -163 201v151c0 130 62 197 163 197c47 0 93 -19 122 -59v246zM229 43c60 0 109 46 109 144v153c0 84 -43 142 -109 142c-77 0 -116 -42 -116 -142v-151c0 -103 43 -146 116 -146z" />
    <glyph glyph-name="eth" unicode="&#xf0;" horiz-adv-x="447" 
d="M326 630c42 -49 67 -112 67 -185v-266c0 -122 -68 -189 -171 -189c-102 0 -169 67 -169 189v146c0 122 67 189 157 189c55 0 96 -19 124 -54c-3 59 -26 106 -60 142l-83 -45l-16 33l70 37c-30 23 -66 39 -104 51l19 54c53 -13 101 -39 140 -75l72 39l16 -33zM333 179v146
c0 90 -44 131 -110 131c-70 0 -110 -41 -110 -131v-146c0 -90 41 -131 109 -131c69 0 111 41 111 131z" />
    <glyph glyph-name="dcaron" unicode="&#x10f;" horiz-adv-x="487" 
d="M452 764h65l-32 -169h-42zM338 478v246h58v-724h-48l-8 49c-28 -39 -73 -61 -124 -61c-95 0 -163 68 -163 201v151c0 130 62 197 163 197c47 0 93 -19 122 -59zM229 43c60 0 109 46 109 144v153c0 84 -43 142 -109 142c-77 0 -116 -42 -116 -142v-151
c0 -103 43 -146 116 -146z" />
    <glyph glyph-name="dcroat" unicode="&#x111;" horiz-adv-x="465" 
d="M454 661v-46h-58v-615h-48l-8 49c-28 -39 -73 -61 -124 -61c-95 0 -163 68 -163 201v151c0 130 62 197 163 197c47 0 93 -19 122 -59v137h-94v46h94v63h58v-63h58zM229 43c60 0 109 46 109 144v153c0 84 -43 142 -109 142c-77 0 -116 -42 -116 -142v-151
c0 -103 43 -146 116 -146z" />
    <glyph glyph-name="e" unicode="e" horiz-adv-x="450" 
d="M346 161h59c-8 -110 -73 -171 -183 -171c-102 0 -169 67 -169 187v173c0 120 68 187 170 187c105 0 175 -67 175 -187v-116h-285v-57c0 -88 42 -129 111 -129c76 0 114 36 122 113zM224 479c-69 0 -111 -41 -111 -129v-61h226v61c0 88 -43 129 -115 129z" />
    <glyph glyph-name="eacute" unicode="&#xe9;" horiz-adv-x="450" 
d="M315 718l-87 -113h-58l75 113h70zM346 161h59c-8 -110 -73 -171 -183 -171c-102 0 -169 67 -169 187v173c0 120 68 187 170 187c105 0 175 -67 175 -187v-116h-285v-57c0 -88 42 -129 111 -129c76 0 114 36 122 113zM224 479c-69 0 -111 -41 -111 -129v-61h226v61
c0 88 -43 129 -115 129z" />
    <glyph glyph-name="ecaron" unicode="&#x11b;" horiz-adv-x="450" 
d="M255 605h-64l-81 113h56l57 -70l57 70h56zM346 161h59c-8 -110 -73 -171 -183 -171c-102 0 -169 67 -169 187v173c0 120 68 187 170 187c105 0 175 -67 175 -187v-116h-285v-57c0 -88 42 -129 111 -129c76 0 114 36 122 113zM224 479c-69 0 -111 -41 -111 -129v-61h226
v61c0 88 -43 129 -115 129z" />
    <glyph glyph-name="ecircumflex" unicode="&#xea;" horiz-adv-x="450" 
d="M223 674l-57 -70h-56l81 113h64l81 -113h-56zM346 161h59c-8 -110 -73 -171 -183 -171c-102 0 -169 67 -169 187v173c0 120 68 187 170 187c105 0 175 -67 175 -187v-116h-285v-57c0 -88 42 -129 111 -129c76 0 114 36 122 113zM224 479c-69 0 -111 -41 -111 -129v-61
h226v61c0 88 -43 129 -115 129z" />
    <glyph glyph-name="edieresis" unicode="&#xeb;" horiz-adv-x="450" 
d="M164 626c-24 0 -40 15 -40 39s16 39 40 39c23 0 39 -15 39 -39s-16 -39 -39 -39zM282 626c-24 0 -41 15 -41 39s17 39 41 39s40 -15 40 -39s-16 -39 -40 -39zM346 161h59c-8 -110 -73 -171 -183 -171c-102 0 -169 67 -169 187v173c0 120 68 187 170 187
c105 0 175 -67 175 -187v-116h-285v-57c0 -88 42 -129 111 -129c76 0 114 36 122 113zM224 479c-69 0 -111 -41 -111 -129v-61h226v61c0 88 -43 129 -115 129z" />
    <glyph glyph-name="edotaccent" unicode="&#x117;" horiz-adv-x="450" 
d="M222 617c-29 0 -48 19 -48 48s19 48 48 48s48 -19 48 -48s-19 -48 -48 -48zM346 161h59c-8 -110 -73 -171 -183 -171c-102 0 -169 67 -169 187v173c0 120 68 187 170 187c105 0 175 -67 175 -187v-116h-285v-57c0 -88 42 -129 111 -129c76 0 114 36 122 113zM224 479
c-69 0 -111 -41 -111 -129v-61h226v61c0 88 -43 129 -115 129z" />
    <glyph glyph-name="egrave" unicode="&#xe8;" horiz-adv-x="450" 
d="M271 605h-58l-87 113h70zM346 161h59c-8 -110 -73 -171 -183 -171c-102 0 -169 67 -169 187v173c0 120 68 187 170 187c105 0 175 -67 175 -187v-116h-285v-57c0 -88 42 -129 111 -129c76 0 114 36 122 113zM224 479c-69 0 -111 -41 -111 -129v-61h226v61
c0 88 -43 129 -115 129z" />
    <glyph glyph-name="emacron" unicode="&#x113;" horiz-adv-x="450" 
d="M315 684v-50h-184v50h184zM346 161h59c-8 -110 -73 -171 -183 -171c-102 0 -169 67 -169 187v173c0 120 68 187 170 187c105 0 175 -67 175 -187v-116h-285v-57c0 -88 42 -129 111 -129c76 0 114 36 122 113zM224 479c-69 0 -111 -41 -111 -129v-61h226v61
c0 88 -43 129 -115 129z" />
    <glyph glyph-name="eogonek" unicode="&#x119;" horiz-adv-x="450" 
d="M309 -192c-62 0 -86 40 -86 83c0 35 17 70 45 102v1c-14 -3 -31 -4 -44 -4c-105 0 -171 67 -171 187v173c0 119 67 187 171 187c103 0 174 -66 174 -187v-116h-285v-57c0 -88 40 -129 114 -129s112 40 119 113h59c-7 -69 -23 -90 -52 -124c-41 -46 -73 -88 -73 -132
c0 -36 20 -42 38 -42c13 0 23 0 32 3v-52c-11 -4 -27 -6 -41 -6zM113 289h226v61c0 87 -43 129 -114 129c-70 0 -112 -40 -112 -129v-61z" />
    <glyph glyph-name="f" unicode="f" horiz-adv-x="290" 
d="M251 683c-62 0 -98 -35 -98 -114v-44h115v-54h-115v-471h-59v471h-80v54h80v44c0 107 57 168 157 168h28v-54h-28z" />
    <glyph glyph-name="g" unicode="g" horiz-adv-x="463" 
d="M348 525h49v-561c0 -94 -66 -157 -167 -157c-97 0 -162 59 -167 152h57c5 -63 45 -97 110 -97c67 0 108 38 108 102v102c-27 -33 -67 -50 -116 -50c-101 0 -169 67 -169 187v135c0 131 68 199 167 199c51 0 92 -23 120 -65zM232 72c66 0 106 42 106 131v145
c0 91 -48 133 -106 133c-74 0 -119 -42 -119 -143v-135c0 -89 45 -131 119 -131z" />
    <glyph glyph-name="gbreve" unicode="&#x11f;" horiz-adv-x="463" 
d="M227 607c-69 0 -110 42 -113 116h52c3 -44 21 -66 61 -66s58 22 61 66h52c-3 -74 -44 -116 -113 -116zM348 525h49v-561c0 -94 -66 -157 -167 -157c-97 0 -162 59 -167 152h57c5 -63 45 -97 110 -97c67 0 108 38 108 102v102c-27 -33 -67 -50 -116 -50
c-101 0 -169 67 -169 187v135c0 131 68 199 167 199c51 0 92 -23 120 -65zM232 72c66 0 106 42 106 131v145c0 91 -48 133 -106 133c-74 0 -119 -42 -119 -143v-135c0 -89 45 -131 119 -131z" />
    <glyph glyph-name="gcommaaccent" unicode="&#x123;" horiz-adv-x="463" 
d="M266 606h-67l-18 177h43zM348 525h49v-561c0 -94 -66 -157 -167 -157c-97 0 -162 59 -167 152h57c5 -63 45 -97 110 -97c67 0 108 38 108 102v102c-27 -33 -67 -50 -116 -50c-101 0 -169 67 -169 187v135c0 131 68 199 167 199c51 0 92 -23 120 -65zM232 72
c66 0 106 42 106 131v145c0 91 -48 133 -106 133c-74 0 -119 -42 -119 -143v-135c0 -89 45 -131 119 -131z" />
    <glyph glyph-name="gdotaccent" unicode="&#x121;" horiz-adv-x="463" 
d="M226 622c-29 0 -48 19 -48 48s19 48 48 48s48 -19 48 -48s-19 -48 -48 -48zM348 525h49v-561c0 -94 -66 -157 -167 -157c-97 0 -162 59 -167 152h57c5 -63 45 -97 110 -97c67 0 108 38 108 102v102c-27 -33 -67 -50 -116 -50c-101 0 -169 67 -169 187v135
c0 131 68 199 167 199c51 0 92 -23 120 -65zM232 72c66 0 106 42 106 131v145c0 91 -48 133 -106 133c-74 0 -119 -42 -119 -143v-135c0 -89 45 -131 119 -131z" />
    <glyph glyph-name="h" unicode="h" horiz-adv-x="462" 
d="M261 537c90 0 141 -66 141 -220v-317h-59v312c0 121 -31 169 -97 169c-73 0 -121 -61 -121 -164v-317h-59v720h59v-261c27 47 72 78 136 78z" />
    <glyph glyph-name="hbar" unicode="&#x127;" horiz-adv-x="460" 
d="M259 537c90 0 141 -66 141 -220v-317h-59v312c0 121 -31 169 -97 169c-73 0 -121 -61 -121 -164v-317h-59v610h-64v46h64v67h59v-67h97v-46h-97v-151c27 47 72 78 136 78z" />
    <glyph glyph-name="i" unicode="i" horiz-adv-x="191" 
d="M95 622c-29 0 -48 19 -48 48s19 48 48 48s48 -19 48 -48s-19 -48 -48 -48zM66 0v525h59v-525h-59z" />
    <glyph glyph-name="dotlessi" unicode="&#x131;" horiz-adv-x="191" 
d="M66 0v525h59v-525h-59z" />
    <glyph glyph-name="iacute" unicode="&#xed;" horiz-adv-x="191" 
d="M188 723l-87 -113h-58l75 113h70zM66 0v525h59v-525h-59z" />
    <glyph glyph-name="icircumflex" unicode="&#xee;" horiz-adv-x="228" 
d="M146 722l77 -113h-55l-54 70l-54 -70h-55l77 113h64zM84 0v525h59v-525h-59z" />
    <glyph glyph-name="idieresis" unicode="&#xef;" horiz-adv-x="200" 
d="M44 632c-23 0 -39 14 -39 38s16 38 39 38s38 -14 38 -38s-15 -38 -38 -38zM156 632c-24 0 -40 14 -40 38s16 38 40 38c23 0 39 -14 39 -38s-16 -38 -39 -38zM70 0v525h59v-525h-59z" />
    <glyph glyph-name="i.loclTRK" horiz-adv-x="191" 
d="M95 622c-29 0 -48 19 -48 48s19 48 48 48s48 -19 48 -48s-19 -48 -48 -48zM66 0v525h59v-525h-59z" />
    <glyph glyph-name="igrave" unicode="&#xec;" horiz-adv-x="191" 
d="M-1 723h70l75 -113h-58zM66 0v525h59v-525h-59z" />
    <glyph glyph-name="imacron" unicode="&#x12b;" horiz-adv-x="189" 
d="M7 689h176v-52h-176v52zM65 0v525h59v-525h-59z" />
    <glyph glyph-name="iogonek" unicode="&#x12f;" horiz-adv-x="188" 
d="M95 625c-23 0 -39 17 -39 39c0 23 16 39 39 39c22 0 39 -16 39 -39c0 -21 -17 -39 -39 -39zM114 -137c13 0 23 0 32 3v-52c-11 -4 -27 -6 -41 -6c-62 0 -86 41 -86 81c0 41 17 77 46 109v522h59v-520c-26 -26 -48 -64 -48 -93c0 -33 20 -44 38 -44z" />
    <glyph glyph-name="j" unicode="j" horiz-adv-x="233" 
d="M119 621c-29 0 -48 19 -48 48s19 48 48 48s48 -19 48 -48s-19 -48 -48 -48zM-20 -192v57c82 2 109 45 109 125v535h59v-535c0 -111 -51 -181 -168 -182z" />
    <glyph glyph-name="k" unicode="k" horiz-adv-x="425" 
d="M354 0l-177 267l-52 -57v-210h-59v724h59v-433l199 234h75l-182 -212l208 -313h-71z" />
    <glyph glyph-name="kcommaaccent" unicode="&#x137;" horiz-adv-x="425" 
d="M217 313l208 -313h-71l-177 267l-52 -57v-210h-59v724h59v-433l199 234h75zM181 -249l18 180h65l-37 -180h-46z" />
    <glyph glyph-name="l" unicode="l" horiz-adv-x="197" 
d="M69 0v723h59v-723h-59z" />
    <glyph glyph-name="lacute" unicode="&#x13a;" horiz-adv-x="197" 
d="M51 769l92 113h72l-105 -113h-59zM69 0v723h59v-723h-59z" />
    <glyph glyph-name="lcaron" unicode="&#x13e;" horiz-adv-x="219" 
d="M175 589l9 174h65l-32 -174h-42zM69 0v723h59v-723h-59z" />
    <glyph glyph-name="lcommaaccent" unicode="&#x13c;" horiz-adv-x="221" 
d="M75 0v723h59v-723h-59zM69 -249l18 180h65l-37 -180h-46z" />
    <glyph glyph-name="lslash" unicode="&#x142;" horiz-adv-x="234" 
d="M221 468v-56l-77 -27v-385h-59v365l-72 -25v56l72 25v299h59v-279z" />
    <glyph glyph-name="m" unicode="m" horiz-adv-x="723" 
d="M527 537c81 0 136 -64 136 -203v-334h-59v329c0 110 -33 152 -90 152c-71 0 -120 -61 -120 -163v-318h-59v329c0 110 -35 152 -93 152c-70 0 -117 -61 -117 -163v-318h-59v525h49l9 -68c25 48 68 80 131 80c59 0 104 -32 126 -101c24 60 71 101 146 101z" />
    <glyph glyph-name="n" unicode="n" horiz-adv-x="462" 
d="M261 537c85 0 141 -57 141 -201v-336h-59v327c0 106 -28 154 -97 154c-73 0 -121 -61 -121 -163v-318h-59v525h49l10 -65c27 47 72 77 136 77z" />
    <glyph glyph-name="nacute" unicode="&#x144;" horiz-adv-x="462" 
d="M323 718l-87 -113h-58l75 113h70zM261 537c85 0 141 -57 141 -201v-336h-59v327c0 106 -28 154 -97 154c-73 0 -121 -61 -121 -163v-318h-59v525h49l10 -65c27 47 72 77 136 77z" />
    <glyph glyph-name="ncaron" unicode="&#x148;" horiz-adv-x="462" 
d="M263 605h-64l-81 113h56l57 -70l57 70h56zM261 537c85 0 141 -57 141 -201v-336h-59v327c0 106 -28 154 -97 154c-73 0 -121 -61 -121 -163v-318h-59v525h49l10 -65c27 47 72 77 136 77z" />
    <glyph glyph-name="ncommaaccent" unicode="&#x146;" horiz-adv-x="462" 
d="M261 537c85 0 141 -57 141 -201v-336h-59v327c0 106 -28 154 -97 154c-73 0 -121 -61 -121 -163v-318h-59v525h49l10 -65c27 47 72 77 136 77zM195 -249l18 180h65l-37 -180h-46z" />
    <glyph glyph-name="eng" unicode="&#x14b;" horiz-adv-x="462" 
d="M261 537c90 0 141 -57 141 -201v-379c0 -97 -53 -161 -168 -162v57c80 2 109 39 109 105v370c0 106 -28 154 -97 154c-73 0 -121 -61 -121 -163v-318h-59v525h49l10 -65c27 47 72 77 136 77z" />
    <glyph glyph-name="ntilde" unicode="&#xf1;" horiz-adv-x="462" 
d="M194 652c-11 0 -17 -10 -19 -29h-54c2 48 28 78 68 78c41 0 57 -32 78 -32c13 0 21 10 23 29h50c-5 -48 -29 -78 -68 -78c-40 0 -56 32 -78 32zM261 537c85 0 141 -57 141 -201v-336h-59v327c0 106 -28 154 -97 154c-73 0 -121 -61 -121 -163v-318h-59v525h49l10 -65
c27 47 72 77 136 77z" />
    <glyph glyph-name="o" unicode="o" horiz-adv-x="456" 
d="M228 -12c-105 0 -175 67 -175 190v169c0 123 70 190 175 190s175 -67 175 -190v-169c0 -123 -70 -190 -175 -190zM228 46c71 0 115 41 115 132v169c0 91 -44 132 -115 132s-115 -41 -115 -132v-169c0 -91 44 -132 115 -132z" />
    <glyph glyph-name="oacute" unicode="&#xf3;" horiz-adv-x="456" 
d="M320 723l-87 -113h-58l75 113h70zM228 -12c-105 0 -175 67 -175 190v169c0 123 70 190 175 190s175 -67 175 -190v-169c0 -123 -70 -190 -175 -190zM228 46c71 0 115 41 115 132v169c0 91 -44 132 -115 132s-115 -41 -115 -132v-169c0 -91 44 -132 115 -132z" />
    <glyph glyph-name="ocircumflex" unicode="&#xf4;" horiz-adv-x="456" 
d="M228 679l-57 -70h-56l81 113h64l81 -113h-56zM228 537c105 0 175 -67 175 -190v-169c0 -123 -70 -190 -175 -190s-175 67 -175 190v169c0 123 70 190 175 190zM343 178v169c0 91 -44 132 -115 132s-115 -41 -115 -132v-169c0 -91 44 -132 115 -132s115 41 115 132z" />
    <glyph glyph-name="odieresis" unicode="&#xf6;" horiz-adv-x="456" 
d="M169 631c-24 0 -40 15 -40 39s16 39 40 39c23 0 39 -15 39 -39s-16 -39 -39 -39zM287 631c-24 0 -41 15 -41 39s17 39 41 39s40 -15 40 -39s-16 -39 -40 -39zM228 -12c-105 0 -175 67 -175 190v169c0 123 70 190 175 190s175 -67 175 -190v-169
c0 -123 -70 -190 -175 -190zM228 46c71 0 115 41 115 132v169c0 91 -44 132 -115 132s-115 -41 -115 -132v-169c0 -91 44 -132 115 -132z" />
    <glyph glyph-name="ograve" unicode="&#xf2;" horiz-adv-x="456" 
d="M131 723h70l75 -113h-58zM228 -12c-105 0 -175 67 -175 190v169c0 123 70 190 175 190s175 -67 175 -190v-169c0 -123 -70 -190 -175 -190zM228 46c71 0 115 41 115 132v169c0 91 -44 132 -115 132s-115 -41 -115 -132v-169c0 -91 44 -132 115 -132z" />
    <glyph glyph-name="ohungarumlaut" unicode="&#x151;" horiz-adv-x="456" 
d="M266 723l-82 -113h-53l68 113h67zM368 723l-86 -113h-53l72 113h67zM228 -12c-105 0 -175 67 -175 190v169c0 123 70 190 175 190s175 -67 175 -190v-169c0 -123 -70 -190 -175 -190zM228 46c71 0 115 41 115 132v169c0 91 -44 132 -115 132s-115 -41 -115 -132v-169
c0 -91 44 -132 115 -132z" />
    <glyph glyph-name="omacron" unicode="&#x14d;" horiz-adv-x="456" 
d="M136 689h184v-50h-184v50zM228 -12c-105 0 -175 67 -175 190v169c0 123 70 190 175 190s175 -67 175 -190v-169c0 -123 -70 -190 -175 -190zM228 46c71 0 115 41 115 132v169c0 91 -44 132 -115 132s-115 -41 -115 -132v-169c0 -91 44 -132 115 -132z" />
    <glyph glyph-name="oslash" unicode="&#xf8;" horiz-adv-x="456" 
d="M350 493c34 -33 53 -82 53 -146v-167c0 -123 -70 -190 -175 -190c-28 0 -54 5 -76 14l-26 -64h-58l38 94c-34 32 -53 81 -53 146v167c0 123 70 190 175 190c28 0 54 -5 77 -14l25 62h58zM113 180c0 -35 7 -63 19 -83l151 371c-16 8 -34 11 -55 11
c-71 0 -115 -41 -115 -132v-167zM343 180v167c0 35 -6 62 -18 83l-151 -372c16 -7 34 -10 54 -10c71 0 115 41 115 132z" />
    <glyph glyph-name="otilde" unicode="&#xf5;" horiz-adv-x="456" 
d="M191 657c-11 0 -17 -10 -19 -29h-54c2 48 28 78 68 78c41 0 57 -32 78 -32c13 0 21 10 23 29h50c-5 -48 -29 -78 -68 -78c-40 0 -56 32 -78 32zM228 -12c-105 0 -175 67 -175 190v169c0 123 70 190 175 190s175 -67 175 -190v-169c0 -123 -70 -190 -175 -190zM228 46
c71 0 115 41 115 132v169c0 91 -44 132 -115 132s-115 -41 -115 -132v-169c0 -91 44 -132 115 -132z" />
    <glyph glyph-name="oe" unicode="&#x153;" horiz-adv-x="716" 
d="M671 239h-277v-62c0 -88 41 -129 108 -129c69 0 110 39 110 123h59c0 -116 -67 -181 -169 -181c-61 0 -111 31 -138 86c-28 -57 -78 -86 -140 -86c-103 0 -171 67 -171 189v164c0 122 68 189 171 189c62 0 112 -29 140 -86c27 55 77 86 138 86c102 0 169 -67 169 -187
v-106zM334 179v164c0 90 -42 131 -110 131c-69 0 -111 -41 -111 -131v-164c0 -90 42 -131 111 -131c68 0 110 41 110 131zM394 345v-54h218v54c0 88 -41 129 -110 129c-67 0 -108 -41 -108 -129z" />
    <glyph glyph-name="p" unicode="p" horiz-adv-x="462" 
d="M246 537c95 0 163 -68 163 -201v-151c0 -130 -62 -197 -163 -197c-47 0 -93 19 -122 59v-227h-58v705h48l8 -49c28 39 73 61 124 61zM349 185v151c0 103 -43 146 -116 146c-60 0 -109 -46 -109 -144v-153c0 -84 43 -142 109 -142c77 0 116 42 116 142z" />
    <glyph glyph-name="thorn" unicode="&#xfe;" horiz-adv-x="457" 
d="M246 532c98 0 158 -67 158 -197v-130c0 -130 -60 -197 -158 -197c-47 0 -93 19 -122 59v-247h-58v900h58v-247c29 40 75 59 122 59zM344 205v130c0 100 -37 142 -111 142c-66 0 -109 -58 -109 -142v-130c0 -84 43 -142 109 -142c74 0 111 42 111 142z" />
    <glyph glyph-name="q" unicode="q" horiz-adv-x="462" 
d="M348 525h48v-705h-58v227c-29 -40 -75 -59 -122 -59c-101 0 -163 67 -163 197v151c0 133 68 201 163 201c51 0 96 -22 124 -61zM229 43c66 0 109 58 109 142v153c0 98 -49 144 -109 144c-73 0 -116 -43 -116 -146v-151c0 -100 39 -142 116 -142z" />
    <glyph glyph-name="r" unicode="r" horiz-adv-x="331" 
d="M262 536c20 0 37 -1 53 -5v-64c-19 7 -40 11 -66 11c-75 0 -124 -60 -124 -160v-318h-59v525h49l10 -66v-1c27 47 72 78 137 78z" />
    <glyph glyph-name="racute" unicode="&#x155;" horiz-adv-x="331" 
d="M277 723l-87 -113h-58l75 113h70zM262 536c20 0 37 -1 53 -5v-64c-19 7 -40 11 -66 11c-75 0 -124 -60 -124 -160v-318h-59v525h49l10 -66v-1c27 47 72 78 137 78z" />
    <glyph glyph-name="rcaron" unicode="&#x159;" horiz-adv-x="331" 
d="M217 610h-64l-81 113h56l57 -70l57 70h56zM262 536c20 0 37 -1 53 -5v-64c-19 7 -40 11 -66 11c-75 0 -124 -60 -124 -160v-318h-59v525h49l10 -66v-1c27 47 72 78 137 78z" />
    <glyph glyph-name="rcommaaccent" unicode="&#x157;" horiz-adv-x="331" 
d="M262 536c20 0 37 -1 53 -5v-64c-19 7 -40 11 -66 11c-75 0 -124 -60 -124 -160v-318h-59v525h49l10 -66v-1c27 47 72 78 137 78zM70 -249l18 180h65l-37 -180h-46z" />
    <glyph glyph-name="s" unicode="s" horiz-adv-x="402" 
d="M205 -12c-104 0 -174 67 -174 168h59c0 -69 43 -110 115 -110c65 0 103 33 103 89c0 128 -270 81 -270 261c0 85 63 141 158 141c98 0 163 -64 163 -161h-59c0 65 -38 104 -104 104c-62 0 -98 -32 -98 -86c0 -123 270 -76 270 -261c0 -87 -65 -145 -163 -145z" />
    <glyph glyph-name="sacute" unicode="&#x15b;" horiz-adv-x="402" 
d="M291 723l-87 -113h-58l75 113h70zM205 -12c-104 0 -174 67 -174 168h59c0 -69 43 -110 115 -110c65 0 103 33 103 89c0 128 -270 81 -270 261c0 85 63 141 158 141c98 0 163 -64 163 -161h-59c0 65 -38 104 -104 104c-62 0 -98 -32 -98 -86c0 -123 270 -76 270 -261
c0 -87 -65 -145 -163 -145z" />
    <glyph glyph-name="scaron" unicode="&#x161;" horiz-adv-x="402" 
d="M231 610h-64l-81 113h56l57 -70l57 70h56zM98 394c0 -123 270 -76 270 -261c0 -87 -65 -145 -163 -145c-104 0 -174 67 -174 168h59c0 -69 43 -110 115 -110c65 0 103 33 103 89c0 128 -270 81 -270 261c0 85 63 141 158 141c98 0 163 -64 163 -161h-59
c0 65 -38 104 -104 104c-62 0 -98 -32 -98 -86z" />
    <glyph glyph-name="scedilla" unicode="&#x15f;" horiz-adv-x="402" 
d="M368 133c0 -84 -60 -140 -152 -145l-11 -38c4 1 9 1 14 1c37 0 71 -27 71 -67c0 -50 -39 -79 -92 -79c-47 0 -84 26 -88 73h49c4 -18 20 -28 41 -28c24 0 42 12 42 35s-14 34 -39 34c-12 0 -24 -3 -31 -7l-17 16l19 62c-87 12 -143 75 -143 166h59
c0 -69 43 -110 115 -110c65 0 103 33 103 89c0 128 -270 81 -270 261c0 85 63 141 158 141c98 0 163 -64 163 -161h-59c0 65 -38 104 -104 104c-62 0 -98 -32 -98 -86c0 -123 270 -76 270 -261z" />
    <glyph glyph-name="scommaaccent" unicode="&#x219;" horiz-adv-x="402" 
d="M205 -12c-104 0 -174 67 -174 168h59c0 -69 43 -110 115 -110c65 0 103 33 103 89c0 128 -270 81 -270 261c0 85 63 141 158 141c98 0 163 -64 163 -161h-59c0 65 -38 104 -104 104c-62 0 -98 -32 -98 -86c0 -123 270 -76 270 -261c0 -87 -65 -145 -163 -145zM163 -249
l18 180h65l-37 -180h-46z" />
    <glyph glyph-name="germandbls" unicode="&#xdf;" horiz-adv-x="462" 
d="M315 366c67 -17 111 -77 111 -175c0 -124 -70 -191 -186 -191h-64v59h64c83 0 123 41 123 134c0 96 -42 140 -123 140h-64v58h47c73 0 111 42 111 132c0 84 -32 132 -106 132c-72 0 -102 -47 -102 -141v-514h-60v514c0 124 57 198 163 198c107 0 166 -75 166 -190
c0 -86 -31 -141 -80 -156z" />
    <glyph glyph-name="t" unicode="t" horiz-adv-x="297" 
d="M247 51h30v-56h-30c-96 0 -149 60 -149 161v314h-80v55h80v121h59v-121h108v-55h-108v-314c0 -69 28 -105 90 -105z" />
    <glyph glyph-name="tbar" unicode="&#x167;" horiz-adv-x="297" 
d="M247 51h30v-56h-30c-96 0 -149 60 -149 161v116h-62v46h62v152h-80v55h80v121h59v-121h108v-55h-108v-152h83v-46h-83v-116c0 -69 28 -105 90 -105z" />
    <glyph glyph-name="tcaron" unicode="&#x165;" horiz-adv-x="303" 
d="M283 764l-32 -174h-42l9 174h65zM157 156c0 -69 28 -105 90 -105h30v-56h-30c-96 0 -149 60 -149 161v314h-80v55h80v121h59v-121h108v-55h-108v-314z" />
    <glyph glyph-name="uni0163" unicode="&#x163;" horiz-adv-x="297" 
d="M247 51h30v-56h-30c-96 0 -149 60 -149 161v314h-80v55h80v121h59v-121h108v-55h-108v-314c0 -69 28 -105 90 -105zM124 -249l18 180h65l-37 -180h-46z" />
    <glyph glyph-name="uni021B" unicode="&#x21b;" horiz-adv-x="297" 
d="M247 51h30v-56h-30c-96 0 -149 60 -149 161v314h-80v55h80v121h59v-121h108v-55h-108v-314c0 -69 28 -105 90 -105zM124 -249l18 180h65l-37 -180h-46z" />
    <glyph glyph-name="u" unicode="u" horiz-adv-x="462" 
d="M337 525h59v-525h-49l-10 65c-27 -47 -72 -77 -136 -77c-85 0 -141 57 -141 201v336h59v-327c0 -106 28 -154 97 -154c73 0 121 61 121 163v318z" />
    <glyph glyph-name="uacute" unicode="&#xfa;" horiz-adv-x="462" 
d="M322 718l-87 -113h-58l75 113h70zM337 525h59v-525h-49l-10 65c-27 -47 -72 -77 -136 -77c-85 0 -141 57 -141 201v336h59v-327c0 -106 28 -154 97 -154c73 0 121 61 121 163v318z" />
    <glyph glyph-name="ucircumflex" unicode="&#xfb;" horiz-adv-x="462" 
d="M230 674l-57 -70h-56l81 113h64l81 -113h-56zM337 525h59v-525h-49l-10 65c-27 -47 -72 -77 -136 -77c-85 0 -141 57 -141 201v336h59v-327c0 -106 28 -154 97 -154c73 0 121 61 121 163v318z" />
    <glyph glyph-name="udieresis" unicode="&#xfc;" horiz-adv-x="462" 
d="M171 626c-24 0 -40 15 -40 39s16 39 40 39c23 0 39 -15 39 -39s-16 -39 -39 -39zM289 626c-24 0 -41 15 -41 39s17 39 41 39s40 -15 40 -39s-16 -39 -40 -39zM337 525h59v-525h-49l-10 65c-27 -47 -72 -77 -136 -77c-85 0 -141 57 -141 201v336h59v-327
c0 -106 28 -154 97 -154c73 0 121 61 121 163v318z" />
    <glyph glyph-name="ugrave" unicode="&#xf9;" horiz-adv-x="462" 
d="M278 605h-58l-87 113h70zM337 525h59v-525h-49l-10 65c-27 -47 -72 -77 -136 -77c-85 0 -141 57 -141 201v336h59v-327c0 -106 28 -154 97 -154c73 0 121 61 121 163v318z" />
    <glyph glyph-name="uhungarumlaut" unicode="&#x171;" horiz-adv-x="462" 
d="M268 718l-82 -113h-53l68 113h67zM284 605h-53l72 113h67zM337 525h59v-525h-49l-10 65c-27 -47 -72 -77 -136 -77c-85 0 -141 57 -141 201v336h59v-327c0 -106 28 -154 97 -154c73 0 121 61 121 163v318z" />
    <glyph glyph-name="umacron" unicode="&#x16b;" horiz-adv-x="462" 
d="M322 684v-50h-184v50h184zM337 525h59v-525h-49l-10 65c-27 -47 -72 -77 -136 -77c-85 0 -141 57 -141 201v336h59v-327c0 -106 28 -154 97 -154c73 0 121 61 121 163v318z" />
    <glyph glyph-name="uogonek" unicode="&#x173;" horiz-adv-x="462" 
d="M396 0c-36 -28 -65 -69 -65 -102c0 -26 17 -35 39 -35c7 0 17 1 25 3v-52c-10 -4 -25 -6 -38 -6c-60 0 -83 41 -83 80c0 43 28 80 73 112l-10 65c-27 -46 -71 -77 -135 -77c-86 0 -142 56 -142 201v336h59v-327c0 -105 28 -154 96 -154c75 0 122 61 122 163v318h59v-525z
" />
    <glyph glyph-name="uring" unicode="&#x16f;" horiz-adv-x="462" 
d="M230 601c-42 0 -70 28 -70 69c0 40 28 67 70 67s70 -27 70 -67c0 -41 -28 -69 -70 -69zM230 700c-19 0 -31 -13 -31 -31c0 -19 12 -31 31 -31c18 0 31 12 31 31c0 18 -13 31 -31 31zM337 525h59v-525h-49l-10 65c-27 -47 -72 -77 -136 -77c-85 0 -141 57 -141 201v336h59
v-327c0 -106 28 -154 97 -154c73 0 121 61 121 163v318z" />
    <glyph glyph-name="v" unicode="v" horiz-adv-x="378" 
d="M308 525h62l-149 -525h-64l-149 525h62l83 -307c11 -43 27 -112 34 -141h4c7 29 23 98 34 141z" />
    <glyph glyph-name="w" unicode="w" horiz-adv-x="608" 
d="M538 525h62l-130 -525h-65l-64 261c-15 60 -32 144 -36 178h-2c-4 -34 -21 -118 -36 -178l-64 -261h-65l-130 525h62l65 -286c13 -54 28 -136 34 -165h2c6 33 23 122 38 185l63 256h64l63 -256c15 -63 32 -152 38 -185h2c6 29 21 111 34 165z" />
    <glyph glyph-name="wacute" unicode="&#x1e83;" horiz-adv-x="608" 
d="M393 718l-87 -113h-58l75 113h70zM538 525h62l-130 -525h-65l-64 261c-15 60 -32 144 -36 178h-2c-4 -34 -21 -118 -36 -178l-64 -261h-65l-130 525h62l65 -286c13 -54 28 -136 34 -165h2c6 33 23 122 38 185l63 256h64l63 -256c15 -63 32 -152 38 -185h2
c6 29 21 111 34 165z" />
    <glyph glyph-name="wcircumflex" unicode="&#x175;" horiz-adv-x="608" 
d="M301 674l-57 -70h-56l81 113h64l81 -113h-56zM538 525h62l-130 -525h-65l-64 261c-15 60 -32 144 -36 178h-2c-4 -34 -21 -118 -36 -178l-64 -261h-65l-130 525h62l65 -286c13 -54 28 -136 34 -165h2c6 33 23 122 38 185l63 256h64l63 -256c15 -63 32 -152 38 -185h2
c6 29 21 111 34 165z" />
    <glyph glyph-name="wdieresis" unicode="&#x1e85;" horiz-adv-x="608" 
d="M242 626c-24 0 -40 15 -40 39s16 39 40 39c23 0 39 -15 39 -39s-16 -39 -39 -39zM360 626c-24 0 -41 15 -41 39s17 39 41 39s40 -15 40 -39s-16 -39 -40 -39zM538 525h62l-130 -525h-65l-64 261c-15 60 -32 144 -36 178h-2c-4 -34 -21 -118 -36 -178l-64 -261h-65
l-130 525h62l65 -286c13 -54 28 -136 34 -165h2c6 33 23 122 38 185l63 256h64l63 -256c15 -63 32 -152 38 -185h2c6 29 21 111 34 165z" />
    <glyph glyph-name="wgrave" unicode="&#x1e81;" horiz-adv-x="608" 
d="M349 605h-58l-87 113h70zM538 525h62l-130 -525h-65l-64 261c-15 60 -32 144 -36 178h-2c-4 -34 -21 -118 -36 -178l-64 -261h-65l-130 525h62l65 -286c13 -54 28 -136 34 -165h2c6 33 23 122 38 185l63 256h64l63 -256c15 -63 32 -152 38 -185h2c6 29 21 111 34 165z
" />
    <glyph glyph-name="x" unicode="x" horiz-adv-x="380" 
d="M375 0h-69l-116 214l-116 -214h-69l151 262l-144 263h67l111 -206l111 206h67l-143 -263z" />
    <glyph glyph-name="y" unicode="y" horiz-adv-x="387" 
d="M317 525h62l-177 -589c-23 -78 -53 -127 -125 -127h-34v58h26c46 0 61 35 74 78l33 108l-168 472h63l131 -383z" />
    <glyph glyph-name="yacute" unicode="&#xfd;" horiz-adv-x="387" 
d="M281 723l-87 -113h-58l75 113h70zM317 525h62l-177 -589c-23 -78 -53 -127 -125 -127h-34v58h26c46 0 61 35 74 78l33 108l-168 472h63l131 -383z" />
    <glyph glyph-name="ycircumflex" unicode="&#x177;" horiz-adv-x="387" 
d="M189 679l-57 -70h-56l81 113h64l81 -113h-56zM317 525h62l-177 -589c-23 -78 -53 -127 -125 -127h-34v58h26c46 0 61 35 74 78l33 108l-168 472h63l131 -383z" />
    <glyph glyph-name="ydieresis" unicode="&#xff;" horiz-adv-x="387" 
d="M130 631c-24 0 -40 15 -40 39s16 39 40 39c23 0 39 -15 39 -39s-16 -39 -39 -39zM248 631c-24 0 -41 15 -41 39s17 39 41 39s40 -15 40 -39s-16 -39 -40 -39zM317 525h62l-177 -589c-23 -78 -53 -127 -125 -127h-34v58h26c46 0 61 35 74 78l33 108l-168 472h63l131 -383z
" />
    <glyph glyph-name="ygrave" unicode="&#x1ef3;" horiz-adv-x="387" 
d="M237 610h-58l-87 113h70zM317 525h62l-177 -589c-23 -78 -53 -127 -125 -127h-34v58h26c46 0 61 35 74 78l33 108l-168 472h63l131 -383z" />
    <glyph glyph-name="z" unicode="z" horiz-adv-x="357" 
d="M87 55h244v-55h-315v48l236 422h-225v55h296v-47z" />
    <glyph glyph-name="zacute" unicode="&#x17a;" horiz-adv-x="357" 
d="M266 723l-87 -113h-58l75 113h70zM87 55h244v-55h-315v48l236 422h-225v55h296v-47z" />
    <glyph glyph-name="zcaron" unicode="&#x17e;" horiz-adv-x="357" 
d="M206 610h-64l-81 113h56l57 -70l57 70h56zM87 55h244v-55h-315v48l236 422h-225v55h296v-47z" />
    <glyph glyph-name="zdotaccent" unicode="&#x17c;" horiz-adv-x="357" 
d="M173 622c-29 0 -48 19 -48 48s19 48 48 48s48 -19 48 -48s-19 -48 -48 -48zM87 55h244v-55h-315v48l236 422h-225v55h296v-47z" />
    <glyph glyph-name="uni0163.ss01" horiz-adv-x="297" 
d="M247 -5c-16 0 -31 2 -45 5l-19 -51c3 1 10 2 15 2c35 0 68 -27 68 -70c0 -45 -38 -73 -89 -73c-47 0 -84 26 -88 71h49c4 -18 20 -28 41 -28c24 0 42 12 42 33c0 24 -14 35 -39 35c-12 0 -24 -3 -31 -7l-16 16l30 87c-44 25 -67 74 -67 141v314h-80v55h80v121h59v-121
h108v-55h-108v-314c0 -69 28 -105 90 -105h30v-56h-30z" />
    <glyph glyph-name="uni0410" unicode="&#x410;" horiz-adv-x="458" 
d="M381 0l-41 164h-222l-41 -164h-66l184 700h68l184 -700h-66zM132 220h194l-72 290c-11 43 -21 93 -24 110h-2c-3 -17 -13 -67 -24 -110z" />
    <glyph glyph-name="uni0411" unicode="&#x411;" horiz-adv-x="489" 
d="M254 416c119 0 201 -76 201 -205c0 -133 -82 -211 -201 -211h-177v700h340v-58h-278v-226h115zM254 58c81 0 138 52 138 153c0 97 -57 147 -138 147h-115v-300h115z" />
    <glyph glyph-name="uni0412" unicode="&#x412;" horiz-adv-x="493" 
d="M336 363c74 -17 120 -78 120 -172c0 -125 -75 -191 -199 -191h-180v700h164c117 0 186 -66 186 -182c0 -87 -36 -140 -91 -155zM241 642h-102v-254h104c81 0 121 44 121 130c0 85 -40 124 -123 124zM257 58c91 0 136 41 136 133c0 91 -59 139 -147 139h-107v-272h118z
" />
    <glyph glyph-name="uni0413" unicode="&#x413;" horiz-adv-x="414" 
d="M396 700v-58h-257v-642h-62v700h319z" />
    <glyph glyph-name="uni0403" unicode="&#x403;" horiz-adv-x="414" 
d="M334 882l-105 -113h-59l92 113h72zM396 700v-58h-257v-642h-62v700h319z" />
    <glyph glyph-name="uni0490" unicode="&#x490;" horiz-adv-x="414" 
d="M339 800h57v-158h-257v-642h-62v700h262v100z" />
    <glyph glyph-name="uni0414" unicode="&#x414;" horiz-adv-x="517" 
d="M429 58h60v-173h-60v115h-362v-115h-60v173h38c40 39 72 135 76 260l12 382h296v-642zM367 58v584h-175l-12 -340c-4 -113 -26 -193 -58 -244h245z" />
    <glyph glyph-name="uni0415" unicode="&#x415;" horiz-adv-x="454" 
d="M139 57h275v-57h-337v700h326v-57h-264v-259h247v-57h-247v-270z" />
    <glyph glyph-name="uni0401" unicode="&#x401;" horiz-adv-x="454" 
d="M179 788c-24 0 -40 15 -40 39s16 39 40 39c23 0 39 -15 39 -39s-16 -39 -39 -39zM309 788c-24 0 -41 15 -41 39s17 39 41 39s40 -15 40 -39s-16 -39 -40 -39zM139 57h275v-57h-337v700h326v-57h-264v-259h247v-57h-247v-270z" />
    <glyph glyph-name="uni0416" unicode="&#x416;" horiz-adv-x="692" 
d="M618 0l-210 323l-32 -45v-278h-60v278l-32 45l-210 -323h-74l246 377l-230 323h73l227 -328v328h60v-329l65 95l162 234h73l-230 -323l246 -377h-74z" />
    <glyph glyph-name="uni0417" unicode="&#x417;" horiz-adv-x="484" 
d="M310 362c91 -25 127 -91 127 -175c0 -126 -82 -200 -197 -200c-122 0 -198 83 -204 200h63c6 -84 55 -140 139 -140c81 0 137 53 137 140c0 95 -66 144 -150 144h-57v58h50c81 0 142 40 142 135c0 82 -45 129 -124 129c-83 0 -121 -52 -128 -142h-62
c7 124 73 202 191 202c111 0 185 -70 185 -194c0 -80 -31 -133 -112 -157z" />
    <glyph glyph-name="uni0418" unicode="&#x418;" horiz-adv-x="539" 
d="M77 0v700h62v-443c0 -35 -1 -99 -3 -134l3 -1c9 24 30 74 49 114l204 464h70v-700h-62v461l1 117l-2 1c-6 -16 -27 -66 -37 -90l-217 -489h-68z" />
    <glyph glyph-name="uni0419" unicode="&#x419;" horiz-adv-x="539" 
d="M270 766c-69 0 -110 42 -113 116h52c3 -44 21 -66 61 -66s58 22 61 66h52c-3 -74 -44 -116 -113 -116zM77 0v700h62v-443c0 -35 -1 -99 -3 -134l3 -1c9 24 30 74 49 114l204 464h70v-700h-62v461l1 117l-2 1c-6 -16 -27 -66 -37 -90l-217 -489h-68z" />
    <glyph glyph-name="uni040D" unicode="&#x40d;" horiz-adv-x="539" 
d="M312 769h-59l-105 113h72zM77 0v700h62v-443c0 -35 -1 -99 -3 -134l3 -1c9 24 30 74 49 114l204 464h70v-700h-62v461l1 117l-2 1c-6 -16 -27 -66 -37 -90l-217 -489h-68z" />
    <glyph glyph-name="uni041A" unicode="&#x41a;" horiz-adv-x="480" 
d="M406 0l-217 341l-50 -68v-273h-62v700h62v-334l57 82l179 252h77l-223 -305l251 -395h-74z" />
    <glyph glyph-name="uni040C" unicode="&#x40c;" horiz-adv-x="480" 
d="M341 882l-105 -113h-59l92 113h72zM406 0l-217 341l-50 -68v-273h-62v700h62v-334l57 82l179 252h77l-223 -305l251 -395h-74z" />
    <glyph glyph-name="uni041B" unicode="&#x41b;" horiz-adv-x="483" 
d="M105 700h301v-700h-62v642h-180c-9 -221 -18 -421 -30 -507c-11 -89 -55 -144 -134 -144v59c46 0 68 39 74 94c9 75 21 272 31 556z" />
    <glyph glyph-name="uni041C" unicode="&#x41c;" horiz-adv-x="652" 
d="M509 700h66v-700h-62v370c0 74 2 136 6 198l-4 1c-18 -50 -46 -117 -72 -184l-86 -220h-62l-86 220c-26 67 -54 134 -72 184l-4 -1c4 -62 6 -124 6 -198v-370h-62v700h66l125 -302c18 -45 43 -117 56 -156h4c13 39 38 111 56 156z" />
    <glyph glyph-name="uni041D" unicode="&#x41d;" horiz-adv-x="527" 
d="M388 700h62v-700h-62v327h-249v-327h-62v700h62v-315h249v315z" />
    <glyph glyph-name="uni041E" unicode="&#x41e;" horiz-adv-x="518" 
d="M259 -13c-126 0 -201 89 -201 230v266c0 141 75 230 201 230s201 -89 201 -230v-266c0 -141 -75 -230 -201 -230zM259 47c91 0 138 62 138 170v266c0 108 -47 170 -138 170s-138 -62 -138 -170v-266c0 -108 47 -170 138 -170z" />
    <glyph glyph-name="uni041F" unicode="&#x41f;" horiz-adv-x="527" 
d="M450 700v-700h-62v642h-249v-642h-62v700h373z" />
    <glyph glyph-name="uni0420" unicode="&#x420;" horiz-adv-x="480" 
d="M245 700c129 0 200 -78 200 -215c0 -144 -71 -220 -200 -220h-106v-265h-62v700h168zM245 324c94 0 138 50 138 161c0 104 -44 156 -138 156h-106v-317h106z" />
    <glyph glyph-name="uni0421" unicode="&#x421;" horiz-adv-x="480" 
d="M249 -12c-112 0 -191 75 -191 210v304c0 135 77 210 187 210c114 0 187 -72 194 -202h-60c-7 99 -55 146 -134 146c-75 0 -127 -50 -127 -154v-304c0 -104 54 -154 131 -154c80 0 126 49 136 146h60c-10 -128 -81 -202 -196 -202z" />
    <glyph glyph-name="uni0422" unicode="&#x422;" horiz-adv-x="406" 
d="M388 700v-58h-154v-642h-62v642h-154v58h370z" />
    <glyph glyph-name="uni0423" unicode="&#x423;" horiz-adv-x="403" 
d="M333 700h64l-176 -575c-24 -78 -67 -134 -153 -134h-24v59h24c54 0 80 40 96 94l23 74l-179 482h66l140 -392z" />
    <glyph glyph-name="uni040E" unicode="&#x40e;" horiz-adv-x="403" 
d="M205 766c-69 0 -110 42 -113 116h52c3 -44 21 -66 61 -66s58 22 61 66h52c-3 -74 -44 -116 -113 -116zM333 700h64l-176 -575c-24 -78 -67 -134 -153 -134h-24v59h24c54 0 80 40 96 94l23 74l-179 482h66l140 -392z" />
    <glyph glyph-name="uni0424" unicode="&#x424;" horiz-adv-x="647" 
d="M292 -56v78h-19c-148 0 -236 89 -236 250v157c0 161 88 250 236 250h19v73h62v-73h19c149 0 237 -89 237 -250v-157c0 -161 -88 -250 -237 -250h-19v-78h-62zM273 82h19v537h-19c-114 0 -173 -62 -173 -190v-157c0 -128 59 -190 173 -190zM354 82h19
c115 0 174 62 174 190v157c0 128 -59 190 -174 190h-19v-537z" />
    <glyph glyph-name="uni0425" unicode="&#x425;" horiz-adv-x="449" 
d="M430 0h-69l-136 305l-136 -305h-69l169 364l-160 336h69l127 -279l127 279h69l-160 -336z" />
    <glyph glyph-name="uni0427" unicode="&#x427;" horiz-adv-x="491" 
d="M352 700h62v-700h-62v276c-32 -14 -69 -23 -103 -23c-126 0 -208 75 -208 211v236h62v-236c0 -103 57 -152 146 -152c35 0 64 6 103 23v365z" />
    <glyph glyph-name="uni0426" unicode="&#x426;" horiz-adv-x="535" 
d="M447 -115v115h-370v700h62v-642h244v642h62v-642h62v-173h-60z" />
    <glyph glyph-name="uni0428" unicode="&#x428;" horiz-adv-x="790" 
d="M77 0v700h62v-642h225v642h62v-642h225v642h62v-700h-636z" />
    <glyph glyph-name="uni0429" unicode="&#x429;" horiz-adv-x="801" 
d="M713 58h60v-173h-60v115h-636v700h62v-642h225v642h62v-642h225v642h62v-642z" />
    <glyph glyph-name="uni040F" unicode="&#x40f;" horiz-adv-x="527" 
d="M234 -115v115h-157v700h62v-642h249v642h62v-700h-156v-115h-60z" />
    <glyph glyph-name="uni042C" unicode="&#x42c;" horiz-adv-x="476" 
d="M77 0v700h62v-292h117c117 0 198 -75 198 -201c0 -130 -81 -207 -198 -207h-179zM139 58h117c79 0 135 51 135 149c0 94 -56 143 -135 143h-117v-292z" />
    <glyph glyph-name="uni042A" unicode="&#x42a;" horiz-adv-x="531" 
d="M137 0v642h-120v58h182v-289h103c126 0 207 -76 207 -203c0 -130 -81 -208 -207 -208h-165zM199 59h103c88 0 144 52 144 149c0 94 -56 144 -144 144h-103v-293z" />
    <glyph glyph-name="uni042B" unicode="&#x42b;" horiz-adv-x="683" 
d="M77 0v700h62v-293h100c125 0 206 -75 206 -201c0 -129 -81 -206 -206 -206h-162zM544 0v700h62v-700h-62zM139 59h100c87 0 143 51 143 147c0 93 -56 142 -143 142h-100v-289z" />
    <glyph glyph-name="uni0409" unicode="&#x409;" horiz-adv-x="720" 
d="M0 -9v59c43 0 64 39 71 94c10 75 20 272 29 556h289v-293h103c125 0 206 -75 206 -201c0 -129 -81 -206 -206 -206h-165v642h-168c-8 -221 -16 -421 -28 -507c-13 -89 -55 -144 -131 -144zM389 59h103c87 0 143 51 143 147c0 93 -56 142 -143 142h-103v-289z" />
    <glyph glyph-name="uni040A" unicode="&#x40a;" horiz-adv-x="772" 
d="M546 400c124 0 204 -72 204 -194c0 -129 -80 -206 -204 -206h-165v341h-242v-341h-62v700h62v-301h242v301h62v-300h103zM546 59c86 0 141 51 141 147c0 88 -55 135 -141 135h-103v-282h103z" />
    <glyph glyph-name="uni0405" unicode="&#x405;" horiz-adv-x="451" 
d="M227 -13c-116 0 -192 77 -195 193h62c3 -87 53 -133 131 -133c85 0 127 53 127 129c0 162 -310 163 -310 366c0 96 73 171 181 171c110 0 178 -78 183 -188h-62c-4 88 -52 128 -119 128c-76 0 -120 -44 -120 -111c0 -162 310 -156 310 -366c0 -95 -65 -189 -188 -189z
" />
    <glyph glyph-name="uni0404" unicode="&#x404;" horiz-adv-x="480" 
d="M385 190h60c-10 -128 -81 -202 -196 -202c-112 0 -191 75 -191 210v304c0 135 77 210 187 210c114 0 187 -72 194 -202h-60c-7 99 -55 146 -134 146c-75 0 -127 -50 -127 -154v-117h214v-58h-214v-129c0 -104 54 -154 131 -154c80 0 126 49 136 146z" />
    <glyph glyph-name="uni042D" unicode="&#x42d;" horiz-adv-x="480" 
d="M235 712c110 0 187 -75 187 -210v-304c0 -135 -79 -210 -191 -210c-115 0 -186 74 -196 202h60c10 -97 56 -146 136 -146c77 0 131 50 131 154v129h-214v58h214v117c0 104 -52 154 -127 154c-79 0 -127 -47 -134 -146h-60c7 130 80 202 194 202z" />
    <glyph glyph-name="uni0406" unicode="&#x406;" horiz-adv-x="216" 
d="M77 700h62v-700h-62v700z" />
    <glyph glyph-name="uni0407" unicode="&#x407;" horiz-adv-x="216" 
d="M45 788c-24 0 -40 15 -40 39s16 39 40 39c23 0 39 -15 39 -39s-16 -39 -39 -39zM175 788c-24 0 -41 15 -41 39s17 39 41 39s40 -15 40 -39s-16 -39 -40 -39zM77 700h62v-700h-62v700z" />
    <glyph glyph-name="uni0408" unicode="&#x408;" horiz-adv-x="248" 
d="M0 -81v59c74 0 113 34 113 139v583h62v-583c0 -138 -63 -198 -175 -198z" />
    <glyph glyph-name="uni040B" unicode="&#x40b;" horiz-adv-x="559" 
d="M358 532c93 0 141 -66 141 -219v-313h-59v308c0 120 -30 168 -95 168c-73 0 -121 -61 -121 -163v-313h-62v642h-144v58h350v-58h-144v-186c27 46 70 76 134 76z" />
    <glyph glyph-name="uni042E" unicode="&#x42e;" horiz-adv-x="723" 
d="M465 709c126 0 200 -89 200 -240v-238c0 -151 -74 -240 -200 -240s-200 89 -200 240v96h-126v-327h-62v700h62v-315h126v84c0 151 74 240 200 240zM602 231v238c0 118 -47 180 -137 180s-137 -62 -137 -180v-238c0 -118 47 -180 137 -180s137 62 137 180z" />
    <glyph glyph-name="uni042F" unicode="&#x42f;" horiz-adv-x="479" 
d="M28 0l170 281c-98 17 -153 94 -153 206c0 135 75 213 199 213h158v-700h-62v277h-74l-166 -277h-72zM242 335h98v307h-96c-90 0 -136 -52 -136 -152c0 -99 46 -155 134 -155z" />
    <glyph glyph-name="uni0402" unicode="&#x402;" horiz-adv-x="552" 
d="M358 532c93 0 141 -66 141 -219v-149c0 -107 -53 -171 -168 -172v57c80 2 109 39 109 115v144c0 120 -30 168 -95 168c-73 0 -121 -61 -121 -163v-313h-62v642h-144v58h350v-58h-144v-186c27 46 70 76 134 76z" />
    <glyph glyph-name="uni0414.loclBGR" horiz-adv-x="468" 
d="M0 -115v173h44l157 642h67l156 -642h44v-173h-60v115h-348v-115h-60zM107 58h255l-82 357l-45 207h-2c-9 -45 -29 -144 -43 -206z" />
    <glyph glyph-name="uni041B.loclBGR" horiz-adv-x="450" 
d="M189 700h72l178 -700h-66l-105 438c-17 72 -28 124 -41 177h-4c-13 -53 -24 -105 -41 -177l-105 -438h-66z" />
    <glyph glyph-name="uni0430" unicode="&#x430;" horiz-adv-x="447" 
d="M220 537c100 0 161 -67 161 -174v-363h-51l-5 49c-24 -35 -64 -61 -121 -61c-96 0 -166 59 -166 161c0 101 65 157 180 157h104v56c0 77 -36 118 -104 118c-60 0 -101 -34 -105 -92h-59c4 90 69 149 166 149zM213 46c67 0 109 42 109 102v103h-106
c-77 0 -118 -36 -118 -103c0 -69 47 -102 115 -102z" />
    <glyph glyph-name="uni0431" unicode="&#x431;" horiz-adv-x="462" 
d="M252 499c93 0 157 -67 157 -185v-135c0 -122 -68 -189 -172 -189c-103 0 -171 67 -171 189v294c0 149 114 193 172 207c42 10 69 19 93 61l48 -34c-25 -54 -75 -74 -126 -87c-57 -14 -128 -35 -128 -147v-40c27 43 70 66 127 66zM349 179v124c0 97 -43 138 -109 138
c-57 0 -114 -32 -114 -131v-131c0 -90 42 -131 111 -131c70 0 112 41 112 131z" />
    <glyph glyph-name="uni0432" unicode="&#x432;" horiz-adv-x="423" 
d="M304 278c54 -21 86 -75 86 -127c0 -95 -59 -151 -171 -151h-153v524h138c102 0 160 -54 160 -140c0 -37 -21 -79 -60 -106zM124 468v-168h79c68 0 102 32 102 84c0 53 -34 84 -102 84h-79zM218 56c76 0 113 34 113 95c0 59 -37 93 -113 93h-94v-188h94z" />
    <glyph glyph-name="uni0433" unicode="&#x433;" horiz-adv-x="342" 
d="M327 525v-57h-202v-468h-59v525h261z" />
    <glyph glyph-name="uni0453" unicode="&#x453;" horiz-adv-x="342" 
d="M284 723l-87 -113h-58l75 113h70zM327 525v-57h-202v-468h-59v525h261z" />
    <glyph glyph-name="uni0491" unicode="&#x491;" horiz-adv-x="342" 
d="M270 625h57v-157h-202v-468h-59v525h204v100z" />
    <glyph glyph-name="uni0434" unicode="&#x434;" horiz-adv-x="445" 
d="M0 -115v171h38c28 53 45 137 52 237c5 78 8 154 9 232h272v-469h58v-171h-58v115h-313v-115h-58zM103 56h209v413h-157c-1 -62 -3 -123 -8 -185c-8 -102 -23 -177 -44 -228z" />
    <glyph glyph-name="uni0435" unicode="&#x435;" horiz-adv-x="450" 
d="M346 161h59c-8 -110 -73 -171 -183 -171c-102 0 -169 67 -169 187v173c0 120 68 187 170 187c105 0 175 -67 175 -187v-116h-285v-57c0 -88 42 -129 111 -129c76 0 114 36 122 113zM224 479c-69 0 -111 -41 -111 -129v-61h226v61c0 88 -43 129 -115 129z" />
    <glyph glyph-name="uni0451" unicode="&#x451;" horiz-adv-x="450" 
d="M161 626c-24 0 -40 15 -40 39s16 39 40 39c23 0 39 -15 39 -39s-16 -39 -39 -39zM279 626c-24 0 -41 15 -41 39s17 39 41 39s40 -15 40 -39s-16 -39 -40 -39zM346 161h59c-8 -110 -73 -171 -183 -171c-102 0 -169 67 -169 187v173c0 120 68 187 170 187
c105 0 175 -67 175 -187v-116h-285v-57c0 -88 42 -129 111 -129c76 0 114 36 122 113zM224 479c-69 0 -111 -41 -111 -129v-61h226v61c0 88 -43 129 -115 129z" />
    <glyph glyph-name="uni0436" unicode="&#x436;" horiz-adv-x="593" 
d="M522 0l-162 250l-35 -45v-205h-57v205l-35 45l-162 -250h-71l197 295l-182 230h74l98 -129c27 -35 54 -71 81 -107v236h57v-236c27 36 54 72 81 107l98 129h74l-182 -230l197 -295h-71z" />
    <glyph glyph-name="uni0437" unicode="&#x437;" horiz-adv-x="404" 
d="M284 275c49 -18 90 -64 90 -125c0 -95 -73 -160 -173 -160c-109 0 -175 67 -179 157h59c4 -58 45 -99 120 -99c69 0 113 38 113 105c0 55 -42 91 -116 91h-76v55h72c62 0 104 29 104 86c0 52 -36 90 -99 90c-67 0 -101 -31 -106 -102h-59c5 102 62 159 165 159
c91 0 158 -65 158 -142c0 -60 -33 -98 -73 -115z" />
    <glyph glyph-name="uni0438" unicode="&#x438;" horiz-adv-x="455" 
d="M66 0v525h59v-300c0 -39 1 -79 -2 -118l2 -2c9 21 25 57 35 78l168 342h61v-525h-59v283c0 55 2 98 4 140l-2 1c-7 -23 -25 -60 -42 -95l-163 -329h-61z" />
    <glyph glyph-name="uni0439" unicode="&#x439;" horiz-adv-x="455" 
d="M228 607c-69 0 -110 42 -113 116h52c3 -44 21 -66 61 -66s58 22 61 66h52c-3 -74 -44 -116 -113 -116zM66 0v525h59v-300c0 -39 1 -79 -2 -118l2 -2c9 21 25 57 35 78l168 342h61v-525h-59v283c0 55 2 98 4 140l-2 1c-7 -23 -25 -60 -42 -95l-163 -329h-61z" />
    <glyph glyph-name="uni045D" unicode="&#x45d;" horiz-adv-x="455" 
d="M131 723h70l75 -113h-58zM66 0v525h59v-300c0 -39 1 -79 -2 -118l2 -2c9 21 25 57 35 78l168 342h61v-525h-59v283c0 55 2 98 4 140l-2 1c-7 -23 -25 -60 -42 -95l-163 -329h-61z" />
    <glyph glyph-name="uni043A" unicode="&#x43a;" horiz-adv-x="422" 
d="M349 0l-183 251l-41 -50v-201h-59v525h59v-238c26 31 52 63 78 95l117 143h76l-191 -228l217 -297h-73z" />
    <glyph glyph-name="uni045C" unicode="&#x45c;" horiz-adv-x="422" 
d="M297 723l-87 -113h-58l75 113h70zM349 0l-183 251l-41 -50v-201h-59v525h59v-238c26 31 52 63 78 95l117 143h76l-191 -228l217 -297h-73z" />
    <glyph glyph-name="uni043B" unicode="&#x43b;" horiz-adv-x="431" 
d="M5 -4v57c62 0 73 85 80 190c6 97 8 184 10 282h270v-525h-59v469h-153c-2 -78 -7 -178 -10 -235c-9 -158 -44 -238 -138 -238z" />
    <glyph glyph-name="uni043C" unicode="&#x43c;" horiz-adv-x="538" 
d="M411 525h61v-525h-57v289c0 51 4 89 5 129l-3 1c-14 -40 -29 -82 -46 -121l-72 -160h-60l-72 160c-17 39 -32 81 -46 121l-3 -1c1 -40 5 -78 5 -129v-289h-57v525h61l107 -239c11 -28 23 -55 34 -83h2c11 28 23 55 34 83z" />
    <glyph glyph-name="uni043D" unicode="&#x43d;" horiz-adv-x="450" 
d="M325 525h59v-525h-59v244h-200v-244h-59v525h59v-225h200v225z" />
    <glyph glyph-name="uni043E" unicode="&#x43e;" horiz-adv-x="456" 
d="M228 -12c-105 0 -175 67 -175 190v169c0 123 70 190 175 190s175 -67 175 -190v-169c0 -123 -70 -190 -175 -190zM228 46c71 0 115 41 115 132v169c0 91 -44 132 -115 132s-115 -41 -115 -132v-169c0 -91 44 -132 115 -132z" />
    <glyph glyph-name="uni043F" unicode="&#x43f;" horiz-adv-x="450" 
d="M384 525v-525h-59v469h-200v-469h-59v525h318z" />
    <glyph glyph-name="uni0440" unicode="&#x440;" horiz-adv-x="462" 
d="M246 537c95 0 163 -68 163 -201v-151c0 -130 -62 -197 -163 -197c-47 0 -93 19 -122 59v-227h-58v705h48l8 -49c28 39 73 61 124 61zM349 185v151c0 103 -43 146 -116 146c-60 0 -109 -46 -109 -144v-153c0 -84 43 -142 109 -142c77 0 116 42 116 142z" />
    <glyph glyph-name="uni0441" unicode="&#x441;" horiz-adv-x="432" 
d="M221 -10c-101 0 -168 67 -168 187v173c0 120 67 187 168 187c104 0 170 -67 173 -187h-60c-3 88 -43 129 -113 129c-67 0 -108 -41 -108 -129v-173c0 -88 41 -129 108 -129c70 0 111 41 114 129h60c-3 -120 -70 -187 -174 -187z" />
    <glyph glyph-name="uni0442" unicode="&#x442;" horiz-adv-x="343" 
d="M331 525v-55h-130v-470h-59v470h-130v55h319z" />
    <glyph glyph-name="uni0443" unicode="&#x443;" horiz-adv-x="387" 
d="M317 525h62l-177 -589c-23 -78 -53 -127 -125 -127h-34v58h26c46 0 61 35 74 78l33 108l-168 472h63l131 -383z" />
    <glyph glyph-name="uni045E" unicode="&#x45e;" horiz-adv-x="387" 
d="M189 607c-69 0 -110 42 -113 116h52c3 -44 21 -66 61 -66s58 22 61 66h52c-3 -74 -44 -116 -113 -116zM317 525h62l-177 -589c-23 -78 -53 -127 -125 -127h-34v58h26c46 0 61 35 74 78l33 108l-168 472h63l131 -383z" />
    <glyph glyph-name="uni0444" unicode="&#x444;" horiz-adv-x="614" 
d="M362 533c110 0 199 -76 199 -208v-130c0 -129 -90 -203 -199 -203h-26v-172h-58v172h-26c-109 0 -199 74 -199 203v130c0 132 89 208 199 208h26v187h58v-187h26zM252 50h26v425h-26c-77 0 -139 -49 -139 -150v-130c0 -97 63 -145 139 -145zM501 195v130
c0 101 -62 150 -139 150h-26v-425h26c76 0 139 48 139 145z" />
    <glyph glyph-name="uni0445" unicode="&#x445;" horiz-adv-x="380" 
d="M375 0h-69l-116 214l-116 -214h-69l151 262l-144 263h67l111 -206l111 206h67l-143 -263z" />
    <glyph glyph-name="hacy.001" horiz-adv-x="380" 
d="M375 0h-69l-116 214l-116 -214h-69l151 262l-144 263h67l111 -206l111 206h67l-143 -263z" />
    <glyph glyph-name="uni0447" unicode="&#x447;" horiz-adv-x="425" 
d="M300 525h59v-525h-59v198c-34 -18 -69 -21 -105 -21c-88 0 -162 68 -162 206v142h59v-142c0 -106 47 -148 108 -148c34 0 67 2 100 22v268z" />
    <glyph glyph-name="uni0446" unicode="&#x446;" horiz-adv-x="461" 
d="M380 -115v115h-314v525h59v-469h196v469h59v-469h58v-171h-58z" />
    <glyph glyph-name="uni0448" unicode="&#x448;" horiz-adv-x="686" 
d="M561 525h59v-525h-560v525h59v-469h191v469h60v-469h191v469z" />
    <glyph glyph-name="uni0449" unicode="&#x449;" horiz-adv-x="705" 
d="M626 55h56v-170h-56v115h-560v525h59v-469h191v469h60v-469h191v469h59v-470z" />
    <glyph glyph-name="uni045F" unicode="&#x45f;" horiz-adv-x="450" 
d="M325 525h59v-525h-128v-115h-57v115h-133v525h59v-469h200v469z" />
    <glyph glyph-name="uni044C" unicode="&#x44c;" horiz-adv-x="407" 
d="M221 340c95 0 172 -70 172 -169c0 -100 -77 -171 -172 -171h-155v525h59v-185h96zM221 57c63 0 112 45 112 114c0 68 -49 112 -112 112h-96v-226h96z" />
    <glyph glyph-name="uni044A" unicode="&#x44a;" horiz-adv-x="459" 
d="M273 340c95 0 172 -70 172 -169c0 -100 -77 -171 -172 -171h-155v470h-106v55h165v-185h96zM273 57c63 0 112 45 112 114c0 68 -49 112 -112 112h-96v-226h96z" />
    <glyph glyph-name="uni044B" unicode="&#x44b;" horiz-adv-x="598" 
d="M221 332c95 0 172 -68 172 -165c0 -98 -77 -167 -172 -167h-155v520h59v-188h96zM473 520h59v-520h-59v520zM221 57c63 0 112 43 112 110c0 66 -49 108 -112 108h-96v-218h96z" />
    <glyph glyph-name="uni0459" unicode="&#x459;" horiz-adv-x="647" 
d="M5 -4v57c62 0 74 85 80 190c6 97 8 184 10 282h270v-193h96c95 0 172 -68 172 -165c0 -98 -77 -167 -172 -167h-155v469h-153c-2 -78 -7 -178 -10 -235c-8 -158 -44 -238 -138 -238zM365 57h96c63 0 112 43 112 110c0 66 -49 108 -112 108h-96v-218z" />
    <glyph glyph-name="uni045A" unicode="&#x45a;" horiz-adv-x="663" 
d="M478 313c94 0 171 -62 171 -151c0 -95 -77 -162 -171 -162h-155v256h-198v-256h-59v525h59v-212h198v212h59v-212h96zM478 57c62 0 111 41 111 105c0 57 -49 94 -111 94h-96v-199h96z" />
    <glyph glyph-name="uni0455" unicode="&#x455;" horiz-adv-x="402" 
d="M205 -12c-104 0 -174 67 -174 168h59c0 -69 43 -110 115 -110c65 0 103 33 103 89c0 128 -270 81 -270 261c0 85 63 141 158 141c98 0 163 -64 163 -161h-59c0 65 -38 104 -104 104c-62 0 -98 -32 -98 -86c0 -123 270 -76 270 -261c0 -87 -65 -145 -163 -145z" />
    <glyph glyph-name="uni0454" unicode="&#x454;" horiz-adv-x="432" 
d="M335 177h60c-3 -120 -70 -187 -174 -187c-101 0 -168 67 -168 187v173c0 120 67 187 168 187c104 0 170 -67 173 -187h-60c-3 88 -43 129 -113 129c-67 0 -108 -41 -108 -129v-57h181v-55h-181v-61c0 -88 41 -129 108 -129c70 0 111 41 114 129z" />
    <glyph glyph-name="uni044D" unicode="&#x44d;" horiz-adv-x="432" 
d="M211 537c101 0 168 -67 168 -187v-173c0 -120 -67 -187 -168 -187c-104 0 -171 67 -174 187h60c3 -88 44 -129 114 -129c67 0 108 41 108 129v61h-181v55h181v57c0 88 -41 129 -108 129c-70 0 -110 -41 -113 -129h-60c3 120 69 187 173 187z" />
    <glyph glyph-name="uni0456" unicode="&#x456;" horiz-adv-x="191" 
d="M95 622c-29 0 -48 19 -48 48s19 48 48 48s48 -19 48 -48s-19 -48 -48 -48zM66 0v525h59v-525h-59z" />
    <glyph glyph-name="uni0457" unicode="&#x457;" horiz-adv-x="200" 
d="M44 632c-23 0 -39 14 -39 38s16 38 39 38s38 -14 38 -38s-15 -38 -38 -38zM156 632c-24 0 -40 14 -40 38s16 38 40 38c23 0 39 -14 39 -38s-16 -38 -39 -38zM70 0v525h59v-525h-59z" />
    <glyph glyph-name="uni0458" unicode="&#x458;" horiz-adv-x="233" 
d="M119 621c-29 0 -48 19 -48 48s19 48 48 48s48 -19 48 -48s-19 -48 -48 -48zM-20 -192v57c82 2 109 45 109 125v535h59v-535c0 -111 -51 -181 -168 -182z" />
    <glyph glyph-name="uni045B" unicode="&#x45b;" horiz-adv-x="460" 
d="M259 537c90 0 141 -66 141 -220v-317h-59v312c0 121 -31 169 -97 169c-73 0 -121 -61 -121 -164v-317h-59v610h-64v46h64v67h59v-67h97v-46h-97v-151c27 47 72 78 136 78z" />
    <glyph glyph-name="uni044E" unicode="&#x44e;" horiz-adv-x="611" 
d="M389 537c102 0 169 -67 169 -189v-169c0 -122 -67 -189 -169 -189s-169 67 -169 189v62h-95v-241h-59v525h59v-227h95v50c0 122 67 189 169 189zM498 179v169c0 90 -41 131 -109 131s-109 -41 -109 -131v-169c0 -90 41 -131 109 -131s109 41 109 131z" />
    <glyph glyph-name="uni044F" unicode="&#x44f;" horiz-adv-x="401" 
d="M196 525h145v-525h-59v192h-80l-120 -192h-70l127 195c-66 14 -109 77 -109 163c0 100 66 167 166 167zM282 247v221h-86c-67 0 -106 -41 -106 -110c0 -71 34 -111 100 -111h92z" />
    <glyph glyph-name="uni0452" unicode="&#x452;" horiz-adv-x="466" 
d="M265 537c90 0 141 -66 141 -220v-360c0 -97 -53 -161 -168 -162v57c80 2 109 39 109 105v355c0 121 -31 169 -97 169c-73 0 -121 -61 -121 -164v-317h-59v615h-64v46h64v62h59v-62h97v-46h-97v-156c27 47 72 78 136 78z" />
    <glyph glyph-name="uni0432.loclBGR" horiz-adv-x="456" 
d="M294 388c67 -16 119 -67 119 -184c0 -145 -80 -214 -185 -214c-102 0 -163 64 -163 215v333c0 120 59 194 163 194c98 0 159 -70 159 -178c0 -82 -36 -140 -93 -166zM221 675c-59 0 -97 -47 -97 -137v-138l67 5c86 6 136 64 136 147c0 78 -31 123 -106 123zM227 48
c76 0 126 42 126 151c0 116 -52 155 -148 149l-81 -5v-147c0 -107 36 -148 103 -148z" />
    <glyph glyph-name="uni0433.loclBGR" horiz-adv-x="398" 
d="M200 -10c-100 0 -166 53 -166 143c0 171 260 148 260 263c0 53 -34 84 -91 84c-66 0 -100 -35 -100 -103h-59c0 96 64 160 159 160c93 0 152 -53 152 -139c0 -166 -260 -142 -260 -263c0 -55 46 -87 105 -87c68 0 105 37 108 108h59c-3 -100 -70 -166 -167 -166z" />
    <glyph glyph-name="uni0434.loclBGR" horiz-adv-x="463" 
d="M348 525h49v-561c0 -94 -66 -157 -167 -157c-97 0 -162 59 -167 152h57c5 -63 45 -97 110 -97c67 0 108 38 108 102v102c-27 -33 -67 -50 -116 -50c-101 0 -169 67 -169 187v135c0 131 68 199 167 199c51 0 92 -23 120 -65zM232 72c66 0 106 42 106 131v145
c0 91 -48 133 -106 133c-74 0 -119 -42 -119 -143v-135c0 -89 45 -131 119 -131z" />
    <glyph glyph-name="uni0436.loclBGR" horiz-adv-x="593" 
d="M522 0l-161 253l-36 -45v-208h-57v208l-36 46l-161 -254h-71l195 300l-180 225h74l179 -232v429h57v-429l179 232h74l-180 -225l195 -300h-71z" />
    <glyph glyph-name="uni0437.loclBGR" horiz-adv-x="422" 
d="M273 190c77 -26 107 -87 107 -184c0 -122 -64 -197 -179 -197c-104 0 -165 60 -171 186h59c6 -89 45 -128 111 -128c78 0 120 54 120 142c0 95 -50 150 -135 150h-56v56h52c78 0 125 48 125 137c0 79 -39 127 -105 127c-64 0 -99 -43 -105 -128h-59c6 123 65 186 165 186
c103 0 162 -67 162 -182c0 -82 -21 -136 -91 -165z" />
    <glyph glyph-name="uni0438.loclBGR" horiz-adv-x="462" 
d="M337 525h59v-525h-49l-10 65c-27 -47 -72 -77 -136 -77c-85 0 -141 57 -141 201v336h59v-327c0 -106 28 -154 97 -154c73 0 121 61 121 163v318z" />
    <glyph glyph-name="uni0439.loclBGR" horiz-adv-x="462" 
d="M228 607c-69 0 -110 42 -113 116h52c3 -44 21 -66 61 -66s58 22 61 66h52c-3 -74 -44 -116 -113 -116zM337 525h59v-525h-49l-10 65c-27 -47 -72 -77 -136 -77c-85 0 -141 57 -141 201v336h59v-327c0 -106 28 -154 97 -154c73 0 121 61 121 163v318z" />
    <glyph glyph-name="uni045D.loclBGR" horiz-adv-x="468" 
d="M285 610h-58l-87 113h70zM343 525h59v-525h-49l-10 65c-27 -47 -72 -77 -136 -77c-85 0 -141 57 -141 201v336h59v-327c0 -106 28 -154 97 -154c73 0 121 61 121 163v318z" />
    <glyph glyph-name="uni043A.loclBGR" horiz-adv-x="425" 
d="M354 0l-177 267l-52 -57v-210h-59v724h59v-433l199 234h75l-182 -212l208 -313h-71z" />
    <glyph glyph-name="uni043B.loclBGR" horiz-adv-x="378" 
d="M308 0l-83 307c-11 43 -27 112 -34 141h-4c-7 -29 -23 -98 -34 -141l-83 -307h-62l149 525h64l149 -525h-62z" />
    <glyph glyph-name="uni043F.loclBGR" horiz-adv-x="462" 
d="M261 537c85 0 141 -57 141 -201v-336h-59v327c0 106 -28 154 -97 154c-73 0 -121 -61 -121 -163v-318h-59v525h49l10 -65c27 47 72 77 136 77z" />
    <glyph glyph-name="uni0442.loclBGR" horiz-adv-x="723" 
d="M527 537c81 0 136 -64 136 -203v-334h-59v329c0 110 -33 152 -90 152c-71 0 -120 -61 -120 -163v-318h-59v329c0 110 -35 152 -93 152c-70 0 -117 -61 -117 -163v-318h-59v525h49l9 -68c25 48 68 80 131 80c59 0 104 -32 126 -101c24 60 71 101 146 101z" />
    <glyph glyph-name="uni0446.loclBGR" horiz-adv-x="475" 
d="M395 -115v115c-23 9 -46 27 -55 72c-27 -51 -73 -84 -141 -84c-89 0 -139 57 -139 201v336h59v-327c0 -106 27 -154 95 -154c73 0 121 61 121 163v318h59v-390c0 -75 17 -84 58 -84v-166h-57z" />
    <glyph glyph-name="uni0448.loclBGR" horiz-adv-x="723" 
d="M598 525h59v-525h-49l-9 68c-25 -48 -68 -80 -131 -80c-59 0 -104 32 -126 101c-24 -60 -71 -101 -146 -101c-81 0 -136 64 -136 203v334h59v-329c0 -110 33 -152 90 -152c71 0 120 61 120 163v318h59v-329c0 -110 35 -152 93 -152c70 0 117 61 117 163v318z" />
    <glyph glyph-name="uni0449.loclBGR" horiz-adv-x="734" 
d="M653 135c0 -75 17 -84 58 -84v-166h-57v115c-23 9 -46 27 -56 74c-24 -52 -67 -86 -133 -86c-57 0 -101 31 -123 97c-23 -57 -69 -97 -145 -97c-82 0 -137 64 -137 203v334h59v-329c0 -110 33 -152 91 -152c71 0 117 61 117 163v318h59v-329c0 -110 34 -152 92 -152
c70 0 116 61 116 163v318h59v-390z" />
    <glyph glyph-name="uni044C.loclBGR" horiz-adv-x="409" 
d="M234 361c95 2 161 -69 161 -184c0 -119 -68 -189 -169 -189s-166 68 -166 172v365h59v-216c28 34 68 51 115 52zM226 46c69 0 109 44 109 131c0 84 -39 127 -109 127c-66 0 -107 -44 -107 -130c0 -85 40 -128 107 -128z" />
    <glyph glyph-name="uni044A.loclBGR" horiz-adv-x="462" 
d="M287 361c95 2 161 -69 161 -184c0 -119 -68 -189 -169 -189s-166 68 -166 172v310h-106v55h165v-216c28 34 68 51 115 52zM279 46c69 0 109 44 109 131c0 84 -39 127 -109 127c-66 0 -107 -44 -107 -130c0 -85 40 -128 107 -128z" />
    <glyph glyph-name="uni044E.loclBGR" horiz-adv-x="614" 
d="M392 532c102 0 169 -67 169 -189v-164c0 -122 -67 -189 -169 -189s-169 67 -169 189v62h-95v-241h-59v720h59v-422h95v45c0 122 67 189 169 189zM501 179v164c0 90 -41 131 -109 131s-109 -41 -109 -131v-164c0 -90 41 -131 109 -131s109 41 109 131z" />
    <glyph glyph-name="zero" unicode="0" horiz-adv-x="456" 
d="M228 -10c-102 0 -170 73 -170 182v355c0 110 68 183 170 183s170 -73 170 -183v-355c0 -109 -68 -182 -170 -182zM228 48c70 0 111 46 111 124v355c0 79 -41 125 -111 125s-111 -46 -111 -125v-355c0 -78 41 -124 111 -124z" />
    <glyph glyph-name="one" unicode="1" horiz-adv-x="278" 
d="M141 700h60v-695h-60v616l-115 -96v76z" />
    <glyph glyph-name="two" unicode="2" horiz-adv-x="403" 
d="M32 0v50c0 238 270 331 270 502c0 58 -38 102 -104 102c-61 0 -100 -40 -102 -119h-60c6 105 68 175 162 175c101 0 164 -70 164 -158c0 -200 -270 -293 -270 -496h277v-56h-337z" />
    <glyph glyph-name="three" unicode="3" horiz-adv-x="407" 
d="M185 409c120 0 175 -67 175 -176v-50c0 -126 -69 -193 -170 -193c-97 0 -172 63 -172 196h60c4 -107 51 -138 111 -138c70 0 112 41 112 135v50c0 86 -48 124 -121 124h-63v50l149 238h-224v56h301v-43l-159 -249h1z" />
    <glyph glyph-name="four" unicode="4" horiz-adv-x="407" 
d="M405 245v-58h-85v-187h-60v187h-249v33l162 480h63l-154 -455h178v258h60v-258h85z" />
    <glyph glyph-name="five" unicode="5" horiz-adv-x="400" 
d="M214 467c92 0 150 -67 150 -189v-70c0 -151 -56 -218 -156 -218c-96 0 -157 63 -161 176h59c3 -80 39 -118 102 -118c62 0 96 41 96 160v69c0 90 -29 133 -98 133c-51 0 -84 -30 -96 -76h-57v366h291v-56h-232v-217c24 24 58 40 102 40z" />
    <glyph glyph-name="six" unicode="6" horiz-adv-x="430" 
d="M228 460c84 0 160 -67 160 -172v-122c0 -109 -73 -176 -164 -176c-92 0 -166 67 -166 176v373c0 104 70 171 164 171c87 0 155 -66 162 -166h-60c-4 70 -49 108 -102 108c-60 0 -104 -41 -104 -112v-127c27 29 62 47 110 47zM328 166v122c0 73 -49 114 -110 114
c-56 0 -100 -41 -100 -116v-120c0 -77 47 -118 106 -118c58 0 104 41 104 118z" />
    <glyph glyph-name="seven" unicode="7" horiz-adv-x="352" 
d="M0 701h322v-33l-193 -670h-63l186 645h-252v58z" />
    <glyph glyph-name="eight" unicode="8" horiz-adv-x="456" 
d="M314 361c58 -27 92 -88 92 -164v-17c0 -119 -66 -190 -178 -190s-178 71 -178 190v17c0 76 34 137 92 164c-51 28 -80 87 -80 157v12c0 113 62 180 166 180s166 -67 166 -180v-12c0 -70 -29 -129 -80 -157zM122 530v-12c0 -81 39 -129 106 -129s106 48 106 129v12
c0 77 -39 122 -106 122s-106 -45 -106 -122zM346 180v17c0 84 -44 134 -118 134s-118 -50 -118 -134v-17c0 -83 44 -132 118 -132s118 49 118 132z" />
    <glyph glyph-name="nine" unicode="9" horiz-adv-x="430" 
d="M206 710c92 0 166 -67 166 -176v-373c0 -104 -70 -171 -164 -171c-87 0 -155 66 -162 166h60c4 -70 49 -108 102 -108c60 0 104 41 104 112v127c-27 -29 -62 -47 -110 -47c-84 0 -160 67 -160 172v122c0 109 73 176 164 176zM212 298c56 0 100 41 100 116v120
c0 77 -47 118 -106 118c-58 0 -104 -41 -104 -118v-122c0 -73 49 -114 110 -114z" />
    <glyph glyph-name="fraction" unicode="&#x2044;" horiz-adv-x="546" 
d="M14 0l452 700h66l-452 -700h-66z" />
    <glyph glyph-name="asterisk" unicode="*" horiz-adv-x="292" 
d="M93 492l-37 26l53 73l-84 27l13 43l85 -28v89h45v-89l85 27l14 -42l-86 -27l53 -73l-36 -27l-53 73z" />
    <glyph glyph-name="backslash" unicode="\" horiz-adv-x="478" 
d="M105 810l327 -925h-59l-327 925h59z" />
    <glyph glyph-name="periodcentered" unicode="&#xb7;" horiz-adv-x="182" 
d="M91 211c-28 0 -47 19 -47 47s19 47 47 47s47 -19 47 -47s-19 -47 -47 -47z" />
    <glyph glyph-name="bullet" unicode="&#x2022;" horiz-adv-x="176" 
d="M88 186c-39 0 -65 26 -65 65c0 38 26 64 65 64c38 0 64 -26 64 -64c0 -39 -26 -65 -64 -65z" />
    <glyph glyph-name="colon" unicode=":" horiz-adv-x="175" 
d="M88 337c-28 0 -47 19 -47 47s19 47 47 47s47 -19 47 -47s-19 -47 -47 -47zM88 -10c-28 0 -47 19 -47 47s19 47 47 47s47 -19 47 -47s-19 -47 -47 -47z" />
    <glyph glyph-name="comma" unicode="," horiz-adv-x="148" 
d="M51 78h67l-46 -208h-42z" />
    <glyph glyph-name="ellipsis" unicode="&#x2026;" horiz-adv-x="502" 
d="M91 -10c-28 0 -47 19 -47 47s19 47 47 47s47 -19 47 -47s-19 -47 -47 -47zM251 -10c-28 0 -47 19 -47 47s19 47 47 47s47 -19 47 -47s-19 -47 -47 -47zM411 -10c-28 0 -47 19 -47 47s19 47 47 47s47 -19 47 -47s-19 -47 -47 -47z" />
    <glyph glyph-name="exclam" unicode="!" horiz-adv-x="220" 
d="M80 144v556h60v-556h-60zM110 -10c-28 0 -47 19 -47 47s19 47 47 47s47 -19 47 -47s-19 -47 -47 -47z" />
    <glyph glyph-name="exclamdown" unicode="&#xa1;" horiz-adv-x="220" 
d="M110 535c28 0 47 -19 47 -47s-19 -47 -47 -47s-47 19 -47 47s19 47 47 47zM80 381h60v-561h-60v561z" />
    <glyph glyph-name="numbersign" unicode="#" horiz-adv-x="565" 
d="M95 0l43 189h-124l12 49h123l49 213h-124l11 49h124l46 200h54l-46 -200h108l46 200h55l-46 -200h125l-11 -49h-125l-49 -213h126l-12 -49h-125l-43 -189h-55l43 189h-108l-43 -189h-54zM203 238h108l49 213h-108z" />
    <glyph glyph-name="period" unicode="." horiz-adv-x="182" 
d="M91 -10c-28 0 -47 19 -47 47s19 47 47 47s47 -19 47 -47s-19 -47 -47 -47z" />
    <glyph glyph-name="question" unicode="?" horiz-adv-x="374" 
d="M139 144v63c0 166 146 184 146 334c0 69 -44 113 -105 113c-59 0 -105 -42 -105 -122h-60c4 110 72 178 165 178c96 0 165 -71 165 -169c0 -176 -146 -187 -146 -341v-56h-60zM171 -10c-28 0 -47 19 -47 47s19 47 47 47s47 -19 47 -47s-19 -47 -47 -47z" />
    <glyph glyph-name="questiondown" unicode="&#xbf;" horiz-adv-x="374" 
d="M203 536c28 0 47 -19 47 -47s-19 -47 -47 -47s-47 19 -47 47s19 47 47 47zM235 382v-63c0 -166 -146 -184 -146 -334c0 -69 44 -113 105 -113c59 0 105 42 105 122h60c-4 -110 -72 -178 -165 -178c-96 0 -165 71 -165 169c0 176 146 187 146 341v56h60z" />
    <glyph glyph-name="quotedbl" unicode="&#x22;" horiz-adv-x="225" 
d="M37 700h67l-46 -208h-42zM137 700h67l-46 -208h-42z" />
    <glyph glyph-name="quotesingle" unicode="'" horiz-adv-x="125" 
d="M37 700h67l-46 -208h-42z" />
    <glyph glyph-name="semicolon" unicode=";" horiz-adv-x="158" 
d="M81 337c-28 0 -47 19 -47 47s19 47 47 47s47 -19 47 -47s-19 -47 -47 -47zM51 78h67l-46 -208h-42z" />
    <glyph glyph-name="slash" unicode="/" horiz-adv-x="406" 
d="M337 810h59l-327 -925h-59z" />
    <glyph glyph-name="underscore" unicode="_" horiz-adv-x="406" 
d="M23 -9h360v-55h-360v55z" />
    <glyph glyph-name="braceleft" unicode="{" horiz-adv-x="337" 
d="M194 484c0 -58 -27 -104 -69 -130c42 -26 69 -72 69 -130v-184c0 -62 40 -104 90 -104v-56c-82 0 -148 67 -148 160v184c0 60 -40 90 -83 100v60c43 10 83 40 83 100v176c0 93 66 160 148 160v-56c-50 0 -90 -42 -90 -104v-176z" />
    <glyph glyph-name="braceright" unicode="}" horiz-adv-x="337" 
d="M201 477c0 -60 40 -90 83 -100v-60c-43 -10 -83 -40 -83 -100v-176c0 -93 -66 -160 -148 -160v56c50 0 90 42 90 104v176c0 58 27 104 69 130c-42 26 -69 72 -69 130v184c0 62 -40 104 -90 104v56c82 0 148 -67 148 -160v-184z" />
    <glyph glyph-name="bracketleft" unicode="[" horiz-adv-x="275" 
d="M222 764h-85v-828h85v-56h-145v940h145v-56z" />
    <glyph glyph-name="bracketright" unicode="]" horiz-adv-x="275" 
d="M53 -64h85v828h-85v56h145v-940h-145v56z" />
    <glyph glyph-name="parenleft" unicode="(" horiz-adv-x="275" 
d="M222 -120c-86 5 -145 71 -145 163v615c0 91 59 157 145 162v-57c-51 -4 -85 -44 -85 -105v-615c0 -61 34 -101 85 -106v-57z" />
    <glyph glyph-name="parenright" unicode=")" horiz-adv-x="275" 
d="M53 -120v57c51 5 85 45 85 106v615c0 61 -34 101 -85 105v57c86 -5 145 -71 145 -162v-615c0 -92 -59 -158 -145 -163z" />
    <glyph glyph-name="emdash" unicode="&#x2014;" horiz-adv-x="552" 
d="M46 285h460v-56h-460v56z" />
    <glyph glyph-name="endash" unicode="&#x2013;" horiz-adv-x="432" 
d="M46 229v56h340v-56h-340z" />
    <glyph glyph-name="hyphen" unicode="-" horiz-adv-x="332" 
d="M46 229v56h240v-56h-240z" />
    <glyph glyph-name="emdash.case" horiz-adv-x="552" 
d="M46 385h460v-56h-460v56z" />
    <glyph glyph-name="endash.case" horiz-adv-x="432" 
d="M46 329v56h340v-56h-340z" />
    <glyph glyph-name="hyphen.case" horiz-adv-x="332" 
d="M46 329v56h240v-56h-240z" />
    <glyph glyph-name="guillemotleft" unicode="&#xab;" horiz-adv-x="434" 
d="M168 89l-122 153v30l122 153h60l-133 -168l133 -168h-60zM328 89l-122 153v30l122 153h60l-133 -168l133 -168h-60z" />
    <glyph glyph-name="guillemotright" unicode="&#xbb;" horiz-adv-x="434" 
d="M106 89h-60l133 168l-133 168h60l122 -153v-30zM266 89h-60l133 168l-133 168h60l122 -153v-30z" />
    <glyph glyph-name="guilsinglleft" unicode="&#x2039;" horiz-adv-x="274" 
d="M168 89l-122 153v30l122 153h60l-133 -168l133 -168h-60z" />
    <glyph glyph-name="guilsinglright" unicode="&#x203a;" horiz-adv-x="274" 
d="M106 89h-60l133 168l-133 168h60l122 -153v-30z" />
    <glyph glyph-name="quotedblbase" unicode="&#x201e;" horiz-adv-x="148" 
d="M51 78h67l-46 -208h-42z" />
    <glyph glyph-name="quotedblleft" unicode="&#x201c;" horiz-adv-x="225" 
d="M88 492h-67l46 208h42zM188 492h-67l46 208h42z" />
    <glyph glyph-name="quotedblright" unicode="&#x201d;" horiz-adv-x="225" 
d="M37 700h67l-46 -208h-42zM137 700h67l-46 -208h-42z" />
    <glyph glyph-name="quoteleft" unicode="&#x2018;" horiz-adv-x="125" 
d="M88 492h-67l46 208h42z" />
    <glyph glyph-name="quoteright" unicode="&#x2019;" horiz-adv-x="125" 
d="M37 707h67l-46 -208h-42z" />
    <glyph glyph-name="quotesinglbase" unicode="&#x201a;" horiz-adv-x="148" 
d="M51 78h67l-46 -208h-42z" />
    <glyph glyph-name="guillemotleft.case" horiz-adv-x="434" 
d="M168 149l-122 153v30l122 153h60l-133 -168l133 -168h-60zM328 149l-122 153v30l122 153h60l-133 -168l133 -168h-60z" />
    <glyph glyph-name="guillemotright.case" horiz-adv-x="434" 
d="M106 149h-60l133 168l-133 168h60l122 -153v-30zM266 149h-60l133 168l-133 168h60l122 -153v-30z" />
    <glyph glyph-name="guilsinglleft.case" horiz-adv-x="274" 
d="M168 149l-122 153v30l122 153h60l-133 -168l133 -168h-60z" />
    <glyph glyph-name="guilsinglright.case" horiz-adv-x="274" 
d="M106 149h-60l133 168l-133 168h60l122 -153v-30z" />
    <glyph glyph-name="space" unicode=" " horiz-adv-x="229" 
 />
    <glyph glyph-name="cent" unicode="&#xa2;" horiz-adv-x="426" 
d="M219 48c68 0 110 41 110 129h60c0 -110 -57 -176 -146 -186v-65h-53v66c-84 12 -137 77 -137 185v168c0 108 53 173 137 185v66h53v-65c89 -10 146 -76 146 -186h-60c0 88 -42 129 -110 129c-66 0 -106 -41 -106 -129v-168c0 -88 40 -129 106 -129z" />
    <glyph glyph-name="currency" unicode="&#xa4;" horiz-adv-x="474" 
d="M79 109l-38 33l52 62c-13 23 -21 60 -21 93v60c0 33 8 70 21 93l-52 62l38 33l45 -53c26 24 71 40 113 40c41 0 86 -16 113 -40l45 53l38 -33l-52 -61c13 -23 21 -60 21 -94v-60c0 -34 -8 -71 -21 -94l52 -61l-38 -33l-45 53c-27 -24 -72 -40 -113 -40
c-42 0 -87 16 -113 40zM237 176c67 0 107 45 107 121v60c0 76 -40 121 -107 121s-107 -45 -107 -121v-60c0 -76 40 -121 107 -121z" />
    <glyph glyph-name="dollar" unicode="$" horiz-adv-x="451" 
d="M415 176c0 -91 -60 -182 -174 -189v-72h-45v74c-98 13 -161 86 -164 191h62c3 -87 53 -133 131 -133c85 0 127 53 127 129c0 162 -310 163 -310 366c0 88 61 158 154 169v74h45v-73c99 -8 160 -83 165 -187h-62c-4 88 -52 128 -119 128c-76 0 -120 -44 -120 -111
c0 -162 310 -156 310 -366z" />
    <glyph glyph-name="Euro" unicode="&#x20ac;" horiz-adv-x="543" 
d="M448 190h60c-10 -128 -81 -202 -196 -202c-112 0 -191 75 -191 210v72h-83v47h83v65h-83v47h83v73c0 135 77 210 187 210c114 0 187 -72 194 -202h-60c-7 99 -55 146 -134 146c-75 0 -127 -50 -127 -154v-73h172v-47h-172v-65h172v-47h-172v-72c0 -104 54 -154 131 -154
c80 0 126 49 136 146z" />
    <glyph glyph-name="sterling" unicode="&#xa3;" horiz-adv-x="471" 
d="M126 60h310v-60h-404v52c48 19 68 56 68 114v160h-70v56h70v136c0 117 65 192 163 192c99 0 165 -73 169 -195h-60c-4 91 -45 139 -109 139c-63 0 -103 -50 -103 -136v-136h189v-56h-189v-154c0 -48 -13 -87 -34 -112z" />
    <glyph glyph-name="yen" unicode="&#xa5;" horiz-adv-x="422" 
d="M417 700l-157 -403h136v-48h-154v-61h154v-48h-154v-140h-62v140h-154v48h154v61h-154v48h136l-157 403h66l100 -270c13 -36 27 -72 40 -108l40 109l100 269h66z" />
    <glyph glyph-name="plus" unicode="+" horiz-adv-x="442" 
d="M396 337v-56h-147v-150h-56v150h-147v56h147v150h56v-150h147z" />
    <glyph glyph-name="minus" unicode="&#x2212;" horiz-adv-x="442" 
d="M46 281v56h350v-56h-350z" />
    <glyph glyph-name="multiply" unicode="&#xd7;" horiz-adv-x="449" 
d="M82 119l-40 40l143 142l-142 142l38 41l144 -143l143 142l39 -40l-142 -142l142 -142l-39 -40l-143 143z" />
    <glyph glyph-name="divide" unicode="&#xf7;" horiz-adv-x="442" 
d="M221 405c-26 0 -46 21 -46 46c0 26 20 46 46 46c25 0 46 -20 46 -46c0 -25 -21 -46 -46 -46zM46 281v56h350v-56h-350zM221 113c-26 0 -46 21 -46 46c0 26 20 46 46 46c25 0 46 -20 46 -46c0 -25 -21 -46 -46 -46z" />
    <glyph glyph-name="equal" unicode="=" horiz-adv-x="442" 
d="M46 350v56h350v-56h-350zM46 201v56h350v-56h-350z" />
    <glyph glyph-name="notequal" unicode="&#x2260;" horiz-adv-x="460" 
d="M405 397h-122l-50 -93h172v-56h-201l-41 -77h-56l41 77h-93v56h122l50 93h-172v56h201l41 77h56l-41 -77h93v-56z" />
    <glyph glyph-name="greater" unicode="&#x3e;" horiz-adv-x="412" 
d="M46 481l320 -139v-66l-320 -139v59l257 113l-257 113v59z" />
    <glyph glyph-name="less" unicode="&#x3c;" horiz-adv-x="412" 
d="M366 481v-59l-257 -113l257 -113v-59l-320 139v66z" />
    <glyph glyph-name="greaterequal" unicode="&#x2265;" horiz-adv-x="412" 
d="M46 511l320 -139v-66l-320 -139v59l257 113l-257 113v59zM46 72v55h320v-55h-320z" />
    <glyph glyph-name="lessequal" unicode="&#x2264;" horiz-adv-x="412" 
d="M366 511v-59l-257 -113l257 -113v-59l-320 139v66zM46 72v55h320v-55h-320z" />
    <glyph glyph-name="plusminus" unicode="&#xb1;" horiz-adv-x="460" 
d="M258 373h147v-56h-147v-150h-56v150h-147v56h147v150h56v-150zM55 68v56h350v-56h-350z" />
    <glyph glyph-name="approxequal" unicode="&#x2248;" horiz-adv-x="460" 
d="M378 414l32 -42c-27 -38 -57 -54 -92 -54c-60 0 -125 48 -172 48c-29 0 -51 -18 -64 -37l-31 45c28 36 57 51 91 51c60 0 125 -48 172 -48c29 0 51 18 64 37zM378 262l32 -42c-27 -38 -57 -54 -92 -54c-60 0 -125 48 -172 48c-29 0 -51 -18 -64 -37l-31 45
c28 36 57 51 91 51c60 0 125 -48 172 -48c29 0 51 18 64 37z" />
    <glyph glyph-name="asciitilde" unicode="~" horiz-adv-x="460" 
d="M377 343l32 -42c-27 -38 -57 -54 -92 -54c-60 0 -125 48 -172 48c-29 0 -51 -18 -64 -37l-31 45c28 36 57 51 91 51c60 0 125 -48 172 -48c29 0 51 18 64 37z" />
    <glyph glyph-name="logicalnot" unicode="&#xac;" horiz-adv-x="460" 
d="M410 336v-138h-54v82h-301v56h355z" />
    <glyph glyph-name="emptyset" unicode="&#x2205;" horiz-adv-x="819" 
d="M766 730l-103 -120c61 -63 96 -152 96 -260c0 -216 -141 -359 -353 -359c-86 0 -160 23 -218 66l-74 -87h-59l99 115c-64 63 -101 155 -101 265c0 216 141 359 353 359c88 0 165 -25 223 -70l78 91h59zM100 350c0 -95 31 -173 85 -228l414 482c-51 38 -117 60 -193 60
c-184 0 -306 -126 -306 -314zM712 350c0 92 -29 169 -80 224l-413 -482c50 -36 113 -56 187 -56c184 0 306 126 306 314z" />
    <glyph glyph-name="infinity" unicode="&#x221e;" horiz-adv-x="632" 
d="M441 400c75 0 138 -57 138 -149c0 -91 -63 -147 -138 -147c-67 0 -101 39 -125 85c-24 -46 -58 -85 -125 -85c-75 0 -138 56 -138 147c0 92 63 149 138 149c65 0 100 -35 125 -78c25 43 60 78 125 78zM191 158c51 0 72 46 94 98c-21 49 -44 90 -94 90
c-47 0 -80 -30 -80 -95c0 -57 33 -93 80 -93zM441 158c47 0 80 36 80 93c0 65 -33 95 -80 95c-50 0 -73 -41 -94 -90c22 -52 43 -98 94 -98z" />
    <glyph glyph-name="integral" unicode="&#x222b;" horiz-adv-x="297" 
d="M16 -189v57c74 2 103 39 103 103v579c0 95 53 159 163 160v-57c-75 -2 -104 -39 -104 -103v-579c0 -95 -53 -159 -162 -160z" />
    <glyph glyph-name="product" unicode="&#x220f;" horiz-adv-x="502" 
d="M77 -99v799h348v-800h-60v742h-228v-741h-60z" />
    <glyph glyph-name="summation" unicode="&#x2211;" horiz-adv-x="363" 
d="M40 0v55l158 295l-158 295v55h283v-56h-221l152 -277v-34l-152 -277h221v-56h-283z" />
    <glyph glyph-name="radical" unicode="&#x221a;" horiz-adv-x="455" 
d="M440 795l-151 -795h-101l-84 445h-86v55h135l86 -435l141 730h60z" />
    <glyph glyph-name="partialdiff" unicode="&#x2202;" horiz-adv-x="446" 
d="M160 732c129 -33 233 -139 233 -287v-266c0 -122 -68 -189 -171 -189c-102 0 -169 67 -169 189v146c0 122 67 189 157 189c55 0 96 -19 124 -54c-6 119 -90 187 -193 218zM333 179v146c0 90 -44 131 -110 131c-70 0 -110 -41 -110 -131v-146c0 -90 41 -131 109 -131
c69 0 111 41 111 131z" />
    <glyph glyph-name="percent" unicode="%" horiz-adv-x="566" 
d="M112 393c-55 0 -97 38 -97 108v99c0 70 42 109 97 109c54 0 96 -39 96 -109v-99c0 -70 -42 -108 -96 -108zM26 0l456 700h58l-456 -700h-58zM112 440c27 0 47 17 47 61v99c0 45 -20 62 -47 62c-28 0 -48 -17 -48 -62v-99c0 -44 20 -61 48 -61zM456 -9
c-55 0 -97 38 -97 108v99c0 70 42 109 97 109c54 0 96 -39 96 -109v-99c0 -70 -42 -108 -96 -108zM456 38c27 0 47 17 47 61v99c0 45 -20 62 -47 62c-28 0 -48 -17 -48 -62v-99c0 -44 20 -61 48 -61z" />
    <glyph glyph-name="perthousand" unicode="&#x2030;" horiz-adv-x="850" 
d="M112 393c-55 0 -97 38 -97 108v99c0 70 42 109 97 109c54 0 96 -39 96 -109v-99c0 -70 -42 -108 -96 -108zM10 0l486 700h58l-486 -700h-58zM112 440c27 0 47 17 47 61v99c0 45 -20 62 -47 62c-28 0 -48 -17 -48 -62v-99c0 -44 20 -61 48 -61zM456 -9
c-55 0 -97 38 -97 108v99c0 70 42 109 97 109c54 0 96 -39 96 -109v-99c0 -70 -42 -108 -96 -108zM706 -9c-55 0 -97 38 -97 108v99c0 70 42 109 97 109c54 0 96 -39 96 -109v-99c0 -70 -42 -108 -96 -108zM456 38c27 0 47 17 47 61v99c0 45 -20 62 -47 62
c-28 0 -48 -17 -48 -62v-99c0 -44 20 -61 48 -61zM706 38c27 0 47 17 47 61v99c0 45 -20 62 -47 62c-28 0 -48 -17 -48 -62v-99c0 -44 20 -61 48 -61z" />
    <glyph glyph-name="lozenge" unicode="&#x25ca;" horiz-adv-x="454" 
d="M195 -1l-142 331v40l142 330h64l142 -330v-40l-142 -331h-64zM227 52l124 298l-124 298l-124 -298z" />
    <glyph glyph-name="at" unicode="@" horiz-adv-x="760" 
d="M389 732c200 0 318 -111 318 -330v-108c0 -113 -59 -171 -137 -171c-48 -1 -83 19 -100 51c-19 -37 -53 -60 -101 -60c-71 0 -125 50 -125 148v108c0 96 51 145 124 145c42 0 74 -16 94 -47l6 38h45v-274c0 -35 15 -56 57 -57c53 0 83 39 83 119v108
c0 186 -98 278 -264 278c-178 0 -282 -108 -282 -290v-131c0 -191 108 -303 276 -303c97 0 160 23 203 58l27 -46c-43 -33 -110 -64 -229 -64c-203 0 -331 131 -331 355v131c0 215 125 342 336 342zM377 167c48 0 83 29 83 94v109c0 45 -26 93 -86 93c-45 0 -76 -26 -76 -93
v-108c0 -67 31 -95 79 -95z" />
    <glyph glyph-name="ampersand" unicode="&#x26;" horiz-adv-x="572" 
d="M542 0h-73c-19 28 -38 56 -58 84c-43 -55 -99 -97 -174 -97c-91 0 -160 62 -160 169c0 98 61 164 124 222c-47 74 -78 141 -78 197c0 76 48 138 140 138c100 0 142 -74 140 -149c-3 -82 -62 -140 -122 -196c37 -56 80 -116 124 -175c15 31 27 62 35 88h69
c-14 -41 -34 -95 -63 -145c36 -48 69 -95 96 -136zM185 573c0 -37 25 -91 62 -153c51 46 94 90 94 146c0 48 -29 87 -78 87c-50 0 -78 -36 -78 -80zM243 47c51 0 95 40 129 90c-48 66 -96 129 -137 189c-50 -48 -92 -98 -92 -163c0 -69 44 -116 100 -116z" />
    <glyph glyph-name="paragraph" unicode="&#xb6;" horiz-adv-x="570" 
d="M493 700v-794h-61v736h-159v-736h-61v484c-94 0 -159 59 -159 155s65 155 159 155h281z" />
    <glyph glyph-name="section" unicode="&#xa7;" horiz-adv-x="411" 
d="M289 211c41 -25 71 -60 71 -119c0 -86 -63 -143 -157 -143c-100 0 -167 66 -167 166h59c0 -68 40 -108 108 -108c61 0 97 32 97 86c0 126 -268 91 -268 263c0 64 36 110 93 128c-42 25 -74 61 -74 118c0 81 62 135 151 135c95 0 154 -62 154 -156h-59c0 62 -33 99 -94 99
c-58 0 -92 -32 -92 -78c0 -114 264 -92 264 -262c0 -61 -32 -105 -86 -129zM92 359c0 -49 43 -80 129 -110c61 4 94 40 94 83c0 60 -54 89 -116 115c-55 2 -107 -29 -107 -88z" />
    <glyph glyph-name="copyright" unicode="&#xa9;" horiz-adv-x="718" 
d="M360 -12c-190 0 -302 117 -302 320v90c0 199 112 314 302 314c189 0 300 -115 300 -314v-90c0 -203 -111 -320 -300 -320zM360 34c161 0 252 100 252 274v90c0 171 -91 268 -252 268c-163 0 -254 -97 -254 -268v-90c0 -174 91 -274 254 -274zM358 145
c-78 0 -130 52 -130 141v128c0 89 52 140 130 140c77 0 129 -51 129 -140h-51c0 61 -31 90 -78 90c-48 0 -78 -29 -78 -90v-128c0 -61 30 -90 78 -90s80 29 80 90h52c0 -89 -54 -141 -132 -141z" />
    <glyph glyph-name="registered" unicode="&#xae;" horiz-adv-x="465" 
d="M236 712c109 0 174 -68 174 -182v-54c0 -118 -65 -187 -174 -187c-110 0 -175 69 -175 187v54c0 114 65 182 175 182zM382 476v54c0 97 -54 154 -146 154s-147 -57 -147 -154v-54c0 -100 55 -159 147 -159s146 59 146 159zM316 550c0 -43 -20 -69 -55 -77l60 -101h-34
l-57 99h-26v-99h-30v254h65c49 0 77 -28 77 -76zM204 596v-95h35c30 0 47 17 47 49c0 30 -17 46 -47 46h-35z" />
    <glyph glyph-name="trademark" unicode="&#x2122;" horiz-adv-x="469" 
d="M32 664v36h152v-36h-57v-233h-38v233h-57zM390 700h41v-269h-37v76c0 41 2 99 3 127l-2 1c-7 -16 -16 -39 -25 -60l-29 -73h-36l-29 73c-9 21 -18 44 -25 60l-2 -1c1 -28 3 -86 3 -127v-76h-37v269h41l38 -89c6 -14 24 -59 29 -72c5 13 23 58 29 72z" />
    <glyph glyph-name="degree" unicode="&#xb0;" horiz-adv-x="316" 
d="M34 585c0 76 50 127 124 127s124 -51 124 -127s-50 -127 -124 -127s-124 51 -124 127zM80 585c0 -49 31 -82 78 -82s78 33 78 82s-31 82 -78 82s-78 -33 -78 -82z" />
    <glyph glyph-name="bar" unicode="|" horiz-adv-x="195" 
d="M69 795h57v-880h-57v880z" />
    <glyph glyph-name="brokenbar" unicode="&#xa6;" horiz-adv-x="175" 
d="M59 507v288h57v-288h-57zM59 -65v288h57v-288h-57z" />
    <glyph glyph-name="dagger" unicode="&#x2020;" horiz-adv-x="370" 
d="M340 520v-56h-125v-554h-60v554h-125v56h125v200h60v-200h125z" />
    <glyph glyph-name="daggerdbl" unicode="&#x2021;" horiz-adv-x="370" 
d="M340 464h-125v-298h125v-56h-125v-200h-60v200h-125v56h125v298h-125v56h125v200h60v-200h125v-56z" />
    <glyph glyph-name="asciicircum" unicode="^" horiz-adv-x="309" 
d="M294 478h-61l-78 169l-79 -169h-61l106 222h67z" />
    <glyph glyph-name="uni0308" unicode="&#x308;" 
d="M-158 626c-24 0 -40 15 -40 39s16 39 40 39c23 0 39 -15 39 -39s-16 -39 -39 -39zM-40 626c-24 0 -41 15 -41 39s17 39 41 39s40 -15 40 -39s-16 -39 -40 -39z" />
    <glyph glyph-name="uni0307" unicode="&#x307;" 
d="M-92 622c-29 0 -48 19 -48 48s19 48 48 48s48 -19 48 -48s-19 -48 -48 -48z" />
    <glyph glyph-name="gravecomb" unicode="&#x300;" 
d="M-145 723h70l75 -113h-58z" />
    <glyph glyph-name="acutecomb" unicode="&#x301;" 
d="M0 723l-87 -113h-58l75 113h70z" />
    <glyph glyph-name="uni030B" unicode="&#x30b;" 
d="M-102 723l-82 -113h-53l68 113h67zM0 723l-86 -113h-53l72 113h67z" />
    <glyph glyph-name="uni0302" unicode="&#x302;" 
d="M0 609h-56l-57 70l-57 -70h-56l81 113h64z" />
    <glyph glyph-name="uni030C" unicode="&#x30c;" 
d="M-56 723h56l-81 -113h-64l-81 113h56l57 -70z" />
    <glyph glyph-name="uni0306" unicode="&#x306;" 
d="M-115 607c-69 0 -110 42 -113 116h52c3 -44 21 -66 61 -66s58 22 61 66h52c-3 -74 -44 -116 -113 -116z" />
    <glyph glyph-name="uni030A" unicode="&#x30a;" 
d="M-155 675c0 40 28 67 70 67s70 -27 70 -67c0 -41 -28 -69 -70 -69s-70 28 -70 69zM-116 674c0 -19 12 -31 31 -31c18 0 31 12 31 31c0 18 -13 31 -31 31c-19 0 -31 -13 -31 -31z" />
    <glyph glyph-name="tildecomb" unicode="&#x303;" 
d="M-146 657c-11 0 -17 -10 -19 -29h-54c2 48 28 78 68 78c41 0 57 -32 78 -32c13 0 21 10 23 29h50c-5 -48 -29 -78 -68 -78c-40 0 -56 32 -78 32z" />
    <glyph glyph-name="uni0304" unicode="&#x304;" 
d="M-184 689h184v-50h-184v50z" />
    <glyph glyph-name="uni0312" unicode="&#x312;" 
d="M-42 783l42 -177h-67l-18 177h43z" />
    <glyph glyph-name="uni0326" unicode="&#x326;" 
d="M-85 -249l18 180h65l-37 -180h-46z" />
    <glyph glyph-name="uni0327" unicode="&#x327;" 
d="M-109 -195c-47 0 -84 26 -88 73h49c4 -18 20 -28 41 -28c24 0 42 12 42 35s-14 34 -39 34c-12 0 -24 -3 -31 -7l-17 16l22 72h43l-15 -50c4 1 9 1 14 1c37 0 71 -27 71 -67c0 -50 -39 -79 -92 -79z" />
    <glyph glyph-name="uni0328" unicode="&#x328;" 
d="M0 -186c-11 -4 -27 -6 -41 -6c-62 0 -86 41 -86 81c0 42 23 79 60 111h55c-32 -28 -58 -70 -58 -101c0 -27 20 -36 38 -36c13 0 23 0 32 3v-52z" />
    <glyph glyph-name="uni0335" unicode="&#x335;" 
d="M-210 372v46h200v-46h-200z" />
    <glyph glyph-name="uni0336" unicode="&#x336;" 
d="M-330 418h320v-46h-320v46z" />
    <glyph glyph-name="uni0337" unicode="&#x337;" 
d="M-241 -44l163 594h59l-163 -594h-59z" />
    <glyph glyph-name="uni0338" unicode="&#x338;" 
d="M-332 -37l215 774h59l-215 -774h-59z" />
    <glyph glyph-name="uni0308.case" 
d="M-164 788c-24 0 -40 15 -40 39s16 39 40 39c23 0 39 -15 39 -39s-16 -39 -39 -39zM-34 788c-24 0 -41 15 -41 39s17 39 41 39s40 -15 40 -39s-16 -39 -40 -39z" />
    <glyph glyph-name="uni0307.case" 
d="M-43 794c-29 0 -48 19 -48 48s19 48 48 48s48 -19 48 -48s-19 -48 -48 -48z" />
    <glyph glyph-name="gravecomb.case" 
d="M-9 769h-59l-105 113h72z" />
    <glyph glyph-name="acutecomb.case" 
d="M-164 769l92 113h72l-105 -113h-59z" />
    <glyph glyph-name="uni030B.case" 
d="M-83 882l-82 -113h-53l68 113h67zM19 882l-86 -113h-53l72 113h67z" />
    <glyph glyph-name="uni0302.case" 
d="M-11 769h-56l-57 70l-57 -70h-56l81 113h64z" />
    <glyph glyph-name="uni030C.case" 
d="M-71 882h56l-81 -113h-64l-81 113h56l57 -70z" />
    <glyph glyph-name="uni0306.case" 
d="M-115 766c-69 0 -110 42 -113 116h52c3 -44 21 -66 61 -66s58 22 61 66h52c-3 -74 -44 -116 -113 -116z" />
    <glyph glyph-name="uni030A.case" 
d="M-138 833c0 40 28 67 70 67s70 -27 70 -67c0 -41 -28 -69 -70 -69s-70 28 -70 69zM-99 832c0 -19 12 -31 31 -31c18 0 31 12 31 31c0 18 -13 31 -31 31c-19 0 -31 -13 -31 -31z" />
    <glyph glyph-name="tildecomb.case" 
d="M-142 827c-11 0 -17 -10 -19 -29h-54c2 48 28 78 68 78c41 0 57 -32 78 -32c13 0 21 10 23 29h50c-5 -48 -29 -78 -68 -78c-40 0 -56 32 -78 32z" />
    <glyph glyph-name="uni0304.case" 
d="M-184 849h184v-52h-184v52z" />
    <glyph glyph-name="uni0312.case" 
d="M-75 946l42 -177h-67l-18 177h43z" />
    <glyph glyph-name="uni0326.case" 
d="M-96 -249l18 180h65l-37 -180h-46z" />
    <glyph glyph-name="uni0327.case" 
d="M-109 -195c-47 0 -84 26 -88 73h49c4 -18 20 -28 41 -28c24 0 42 12 42 35s-14 34 -39 34c-12 0 -24 -3 -31 -7l-17 16l22 72h43l-15 -50c4 1 9 1 14 1c37 0 71 -27 71 -67c0 -50 -39 -79 -92 -79z" />
    <glyph glyph-name="uni0328.case" 
d="M5 -186c-11 -4 -27 -6 -41 -6c-62 0 -86 41 -86 81c0 42 23 79 60 111h55c-32 -28 -58 -70 -58 -101c0 -27 20 -36 38 -36c13 0 23 0 32 3v-52z" />
    <glyph glyph-name="uni0337.case" 
d="M-219 -44l163 594h59l-163 -594h-59z" />
    <glyph glyph-name="uni0338.case" 
d="M-381 -37l215 774h59l-215 -774h-59z" />
    <glyph glyph-name="brevecombcy" 
d="M-115 607c-69 0 -110 42 -113 116h52c3 -44 21 -66 61 -66s58 22 61 66h52c-3 -74 -44 -116 -113 -116z" />
    <glyph glyph-name="brevecombcy.case" 
d="M-115 766c-69 0 -110 42 -113 116h52c3 -44 21 -66 61 -66s58 22 61 66h52c-3 -74 -44 -116 -113 -116z" />
    </font>
</defs>
</svg>
